<svg xmlns="http://www.w3.org/2000/svg" xmlns:xlink="http://www.w3.org/1999/xlink" id="Layer_1" x="0" y="0" enable-background="new 0 0 432 142" version="1.1" viewBox="0 0 432 142" xml:space="preserve"><style type="text/css">.st0{fill:#1d4e7c}.st1{fill:url(#SVGID_1_)}.st2{fill:url(#SVGID_2_)}.st3{fill:url(#SVGID_3_)}.st4{fill:url(#SVGID_4_)}.st5{fill:url(#SVGID_5_)}.st6{fill:url(#SVGID_6_)}.st7{fill:url(#SVGID_7_)}.st8{fill:url(#SVGID_8_)}.st9{fill:#fff}</style><g><path d="M57.4,15.9l7.9-1.8v38c0,4.2,1.3,6.6,3.7,7.4c-1.3,2.4-3.3,3.5-6.3,3.5c-3.5,0-5.4-2.4-5.4-7.4L57.4,15.9z M69.7,45.3c0-5.2,1.5-9.4,4.4-12.6c3-3.3,6.8-4.8,11.8-4.8c5.2,0,9.1,1.5,12,4.6c2.8,3.1,4.2,7.4,4.2,12.7s-1.5,9.6-4.4,12.9 C94.9,61.3,91,63,86,63c-5.2,0-9.1-1.7-12-4.8C71.2,54.9,69.7,50.6,69.7,45.3z M77.9,45.3c0,7.4,2.8,11.1,8.1,11.1 c2.4,0,4.4-0.9,5.9-3c1.5-1.8,2.2-4.6,2.2-8.3c0-7.4-2.6-11.1-7.9-11.1c-2.4,0-4.4,0.9-5.9,3C78.6,39,77.9,41.7,77.9,45.3z M103.2,45.3c0-5.2,1.5-9.4,4.4-12.6c3-3.3,6.8-4.8,11.8-4.8c5.2,0,9.1,1.5,12,4.6c2.8,3.1,4.2,7.4,4.2,12.7s-1.5,9.6-4.4,12.9 c-3,3.1-6.8,4.8-11.8,4.8c-5.2,0-9.1-1.7-12-4.8C104.5,54.9,103.2,50.6,103.2,45.3z M111.3,45.3c0,7.4,2.8,11.1,8.1,11.1 c2.4,0,4.4-0.9,5.9-3c1.5-1.8,2.2-4.6,2.2-8.3c0-7.4-2.6-11.1-7.9-11.1c-2.4,0-4.4,0.9-5.9,3C112,39,111.3,41.7,111.3,45.3 L111.3,45.3z M160.4,62.2v-2c-0.7,0.7-1.8,1.3-3.3,1.8c-1.5,0.6-3.1,0.7-4.8,0.7c-4.6,0-8.5-1.5-11.1-4.4c-2.8-3-4.1-7.2-4.1-12.6 s1.5-9.6,4.6-13.1c3.1-3.3,7-5,11.6-5c2.6,0,5,0.6,7,1.7V15.9l7.9-1.8v48.2L160.4,62.2z M160.4,36.4c-1.7-1.3-3.5-2-5.4-2 c-3.1,0-5.5,0.9-7.2,3c-1.7,1.8-2.6,4.6-2.6,8.3c0,7,3.3,10.5,10.2,10.5c0.7,0,1.7-0.2,2.8-0.7c1.1-0.4,1.8-0.9,2.2-1.3V36.4z M171,60l2.8-6.3c2.4,1.8,5,2.8,7.9,2.8c3.1,0,4.6-1.1,4.6-3.3c0-1.3-0.6-2.4-1.5-3.1s-2.8-1.8-5.4-3c-5.9-2.4-8.7-5.7-8.7-10.2 c0-3,1.1-5.2,3.3-6.8c2.2-1.7,5.2-2.4,8.5-2.4c3.5,0,6.8,0.7,10,2.4l-2.2,6.1c-1.7-1.5-4.1-2.2-7.2-2.2c-2.8,0-4.1,1.1-4.1,3.3 c0,0.9,0.4,1.7,1.3,2.4c0.9,0.7,2.8,1.7,5.7,2.8s5.2,2.6,6.5,4.2c1.3,1.7,2,3.7,2,6.1c0,3.1-1.1,5.5-3.5,7.4 c-2.4,1.8-5.5,2.8-9.4,2.8c-2.2,0-4.1-0.2-5.4-0.6C174.8,61.9,173,61.1,171,60z M227.7,47.7h-24.2c0.2,2.8,1.1,4.8,2.8,6.3 c1.7,1.5,4.1,2.2,6.8,2.2c3.5,0,6.3-0.9,8.1-2.8l3.1,6.1c-2.8,2.2-6.8,3.3-12.4,3.3c-5.2,0-9.2-1.5-12.2-4.6c-3-3-4.4-7.2-4.4-12.6 s1.7-9.6,5-12.9s7.2-5,11.8-5c5,0,8.9,1.5,11.8,4.4c3,3,4.4,6.6,4.4,11.1C228.4,44.3,228.2,45.8,227.7,47.7z M203.8,41.7h16.6 c-0.6-5-3.3-7.4-8.1-7.4C207.7,34.4,204.9,36.8,203.8,41.7z" class="st0" transform="matrix(1.7445594 0 0 1.7445594 26.539101 5.956481)"/><g transform="matrix(1.7445594 0 0 1.7445594 26.539101 5.956481)"><linearGradient id="SVGID_1_" x1="-37.552" x2="-63.359" y1="152.648" y2="152.648" gradientTransform="matrix(1.7446 0 0 -1.7446 87.57 273.5446)" gradientUnits="userSpaceOnUse"><stop offset="0" stop-color="#00639B"/><stop offset="1" stop-color="#63C2D0"/></linearGradient><path d="M-3.8,11.5c10,3.1,18.7,2.8,25.9,0.6c-1.7-3.9-2.4-7.8-3-11.3c-0.4,0-0.7,0-1.1,0C9,0.7,0.7,5-3.8,11.5z" class="st1"/><linearGradient id="SVGID_2_" x1="-30.375" x2="-45.796" y1="153.145" y2="153.145" gradientTransform="matrix(1.7446 0 0 -1.7446 87.57 273.5446)" gradientUnits="userSpaceOnUse"><stop offset="0" stop-color="#00639B"/><stop offset="1" stop-color="#63C2D0"/></linearGradient><path d="M19.1,0.7c0.6,3.5,1.3,7.4,3,11.3c4.8-1.5,9.1-3.7,12.6-6.1C30.4,3,25,0.9,19.1,0.7z" class="st2"/><linearGradient id="SVGID_3_" x1="-31.285" x2="-31.285" y1="138.835" y2="160.778" gradientTransform="matrix(1.7446 0 0 -1.7446 87.57 273.5446)" gradientUnits="userSpaceOnUse"><stop offset="0" stop-color="#00639B"/><stop offset="1" stop-color="#63C2D0"/></linearGradient><path d="M34.7,5.9c-3.5,2.4-7.8,4.6-12.6,6.1c3.3,8.3,9.6,17,21.6,22.7c0-0.7,0.2-1.5,0.2-2.2v-9.8 C43.7,16.1,40.2,10,34.7,5.9z" class="st3"/><linearGradient id="SVGID_4_" x1="-25.201" x2="-75.993" y1="141.128" y2="141.128" gradientTransform="matrix(1.7446 0 0 -1.7446 87.57 273.5446)" gradientUnits="userSpaceOnUse"><stop offset="0" stop-color="#00639B"/><stop offset="1" stop-color="#63C2D0"/></linearGradient><path d="M43.5,34.7C31.5,29,25.2,20.3,21.9,12C14.7,14.2,6,14.6-3.9,11.5c-1.7,2.4-3,5.2-3.3,7.9 c12.9,5.7,19.6,14.8,22.9,23.5c7-2,15.3-2.6,24.7,0.4C42.2,40.6,43.3,37.9,43.5,34.7z" class="st4"/><linearGradient id="SVGID_5_" x1="-40.757" x2="-9.496" y1="124.161" y2="124.161" gradientTransform="matrix(1.7446 0 0 -1.7446 87.57 273.5446)" gradientUnits="userSpaceOnUse"><stop offset="0" stop-color="#63C2D0"/><stop offset="1" stop-color="#D6E9D8"/></linearGradient><path d="M16.6,45.1c1.1,3.3,1.7,6.6,2.2,9.6H19c0.6,3.9,2.6,12.9,7.6,16.8c6.3,4.8,5.7-4.4,1.1-9.2 c-2.8-2.8-4.6-5.5-5.5-7.8c0.6,0,1.3-0.2,1.8-0.4c1.5,3,5.7,11.1,11.5,12c7,1.3,4.2-7-1.3-9.2c-3-1.1-5.2-2.4-6.6-3.9 c0.7-0.4,1.7-0.6,2.4-0.9c1.5,1.1,8.7,6.6,14.8,3.3c6.6-3.7,1.3-9.1-4.2-7.2c-2.2,0.7-4.2,1.1-5.7,1.3c1.8-1.3,3.3-2.8,4.6-4.4 c0.6-0.6,0.9-1.3,1.5-2c-9.6-2.8-17.9-2.4-24.7-0.4C16.2,43.6,16.4,44.3,16.6,45.1z" class="st5"/><linearGradient id="SVGID_6_" x1="-40.188" x2="-65.938" y1="137.793" y2="137.793" gradientTransform="matrix(1.7446 0 0 -1.7446 87.57 273.5446)" gradientUnits="userSpaceOnUse"><stop offset="0" stop-color="#00639B"/><stop offset="1" stop-color="#63C2D0"/></linearGradient><path d="M15.8,42.9C12.3,34.2,5.7,25.1-7.1,19.4c-0.2,1.1-0.4,2.2-0.4,3.5v9.8c0,4.6,1.7,9.1,4.6,12.6l12,1.7l7.6-1.7 C16.4,44.3,16.2,43.6,15.8,42.9z" class="st6"/><linearGradient id="SVGID_7_" x1="-56.704" x2="-26.555" y1="123.293" y2="123.293" gradientTransform="matrix(1.7446 0 0 -1.7446 87.57 273.5446)" gradientUnits="userSpaceOnUse"><stop offset="0" stop-color="#63C2D0"/><stop offset="1" stop-color="#D6E9D8"/></linearGradient><path d="M9.9,45.1c-2.8,1.3-5.2,2.8-7.4,4.4c-1.8,0-3.9-0.4-6.5-1.3c-5.5-1.8-10.7,3.5-4.2,7.2 c5.9,3.3,13.3-2.2,14.8-3.3C7.3,52.5,8.2,52.8,9,53c-1.7,1.5-3.7,2.8-6.6,3.9c-5.5,2-8.3,10.3-1.3,9.2c5.7-0.9,10-9.1,11.5-12 c0.6,0.2,1.3,0.2,1.8,0.4c-1.1,2.4-3,5-5.5,7.8c-4.6,4.8-5.2,14,1.1,9.2c3.3-2.6,7.4-16.6,7.6-16.8h0.9h0.7 c-0.7-4.8-1.3-6.5-2.2-9.6C13.8,43.4,11.8,44.1,9.9,45.1z" class="st7"/><linearGradient id="SVGID_8_" x1="-44.43" x2="-66.048" y1="128.953" y2="128.953" gradientTransform="matrix(1.7446 0 0 -1.7446 87.57 273.5446)" gradientUnits="userSpaceOnUse"><stop offset="0" stop-color="#63C2D0"/><stop offset="1" stop-color="#D6E9D8"/></linearGradient><path d="M2.5,49.5c2.2-1.7,5.5-3.5,8.3-4.8c-8.5,1.3-12,0.4-16.4-3.9c1.8,3.9,5.5,7.4,7.4,8.7c-1.7,0-3.5-0.4-5.7-1.3 c-5.5-1.8-10.7,3.5-4.2,7.2c0.9,0.6,1.8,0.9,3,0.9c1.8-2,4.4-4.4,7.4-6.6C2.1,49.7,2.3,49.5,2.5,49.5z" class="st8"/><circle cx="28.7" cy="30.7" r="9.1" class="st9"/><path d="M28.7,25.7c0.6,0,0.9,0,1.5,0.2c-0.9,0.4-1.5,1.3-1.5,2.4c0,1.5,1.1,2.6,2.6,2.6c1.1,0,1.8-0.6,2.4-1.5 c0.2,0.4,0.2,0.9,0.2,1.5c0,2.8-2.2,5-5,5s-5-2.2-5-5C23.6,27.9,26,25.7,28.7,25.7z M27.3,31.2c-0.6,0-0.9,0.4-0.9,0.9 c0,0.6,0.4,0.9,0.9,0.9s0.9-0.4,0.9-0.9C28.2,31.6,27.8,31.2,27.3,31.2z" class="st0"/><circle cx="7.7" cy="30.7" r="9.1" class="st9"/><path d="M7.7,25.7c0.6,0,0.9,0,1.5,0.2c-0.9,0.4-1.5,1.3-1.5,2.4c0,1.5,1.1,2.6,2.6,2.6c1.1,0,1.8-0.6,2.4-1.5 c0.2,0.4,0.2,0.9,0.2,1.5c0,2.8-2.2,5-5,5s-5-2.2-5-5C2.7,27.9,4.9,25.7,7.7,25.7z M6.4,31.2c-0.6,0-0.9,0.4-0.9,0.9 c0,0.6,0.4,0.9,0.9,0.9s0.9-0.4,0.9-0.9C7.3,31.6,6.8,31.2,6.4,31.2z" class="st0"/></g></g></svg>