<svg xmlns="http://www.w3.org/2000/svg" xmlns:xlink="http://www.w3.org/1999/xlink" id="Layer_1" x="0" y="0" enable-background="new 0 0 1412 340" version="1.1" viewBox="0 0 1412 340" xml:space="preserve"><style type="text/css">.st75{fill:#e83f33}.st76{fill:#e84135}.st77{fill:#e84034}</style><g><path d="M19,125c1.3-6,2.4-12.1,4.1-17.9c13-43.8,41.8-71.1,86-82.3c4.1-1,4.8,0.2,4.7,4c-0.2,9-0.2,18-0.1,27 c0,2.6-0.9,3.9-3.3,4.8c-26.5,9.7-41.9,29.2-48.2,56c-5.9,25.2-2.9,49.3,11.4,71.4c8.4,13.1,19.8,22.9,34.6,28.1 c4.3,1.5,5.8,3.8,5.6,8.3c-0.4,8.3-0.2,16.7,0,25c0.1,3.5-1,4.3-4.4,3.4c-38.6-9.5-66.2-32-81.9-68.9c-3.7-8.7-5.6-17.7-7.3-26.9 c-0.2-1.1-0.1-2.4-1.3-3.1C19,144.3,19,134.7,19,125z" class="st75"/><path d="M1247,22c0,4.8,1.5,10.4-0.4,14.3c-2,4.2-8.5,3.4-12.9,4.9c-40.2,13.7-67,48.8-70.4,92.4 c-4,51.7,26.9,95.6,77.3,110.1c2.2,0.6,5.8,0,6.3,2.9c0.6,4.2,0.4,8.6,0,12.9c-0.2,1.8-2.3,0.6-3.4,0.4c-15.5-3.1-30-8.9-43-17.9 c-36.3-25.3-53.4-60.4-52.5-104.5c0.6-31.6,11.9-58.8,33.9-81.4c15.8-16.2,35.1-26.7,57.1-32.2c1.7-0.4,3.7-0.5,5-1.9 C1245,22,1246,22,1247,22z" class="st75"/><path d="M1388,173c-11.8,42.9-39.3,70.8-81.6,84.3c-3.3,1.1-6.8,1.8-10.1,2.7c-2.5,0.7-3.9-0.1-3.7-2.9 c0-0.2,0-0.3,0-0.5c-0.6-10.7-0.5-10.5,9.5-13.8c40.6-13.4,65.9-40.9,73.1-83.1c9.3-55-22-105.7-75.3-119.9c-5.7-1.5-8.1-4-7.2-9.8 c0.4-2.6,0.2-5.3,0.3-8c0.7,0,1.3,0,2,0c21,2.9,38.9,12.6,55.4,25.3c15.7,13.6,27.5,30,34.9,49.4c2.3,6.1,3.9,12.3,4.7,18.8 c2.6,13.9,3.9,27.4,0.4,45.9C1390.4,165.4,1389.1,169.2,1388,173z" class="st75"/><path d="M653.6,162.7c-25.2,0-50.3,0.1-75.5-0.1c-4.5,0-6,1-4.9,5.6c4.6,20,13.4,37.2,31.3,48.5 c0.1,0.1,0.3,0.2,0.4,0.3c9.3,2,10.1,8.6,9.3,16.5c-0.5,5.3-0.2,10.7-0.1,16c0.1,3.3-0.9,4-4.1,3.1c-28.4-7.3-49.7-23.7-62.8-49.9 c-15-30-16-61.4-4.2-92.5c11.7-31.1,34.2-51.3,66.9-59.5c3.6-0.9,4.3,0.1,4.2,3.4c-0.2,8-0.2,16-0.1,24c0,2.6-0.8,4.1-3.5,5.2 c-18.1,7.7-28.7,22.1-34.6,40.3c-3.2,10-2.8,10.2,7.6,10.2c34.8,0,69.7,0,104.5,0c6.1,0,6.3-0.1,5.1-6.1 c-4-19.8-14.7-34.8-33.1-43.6c-3.1-1.5-4.2-3.2-4.1-6.4c0.1-8,0.1-16-0.1-24c-0.1-3.3,1-3.9,4.2-3.2c30.2,6.6,51.1,24.5,63.8,52.4 c7.9,17.3,10.6,35.6,11,54.4c0.1,4.1-1.1,5.5-5.3,5.4C704.3,162.6,679,162.7,653.6,162.7C653.6,162.7,653.6,162.7,653.6,162.7z" class="st75"/><path d="M402.6,47.8C430,48.1,452.8,56,471.5,74c24.1,23.1,32.9,52.2,31.2,84.8c-1.5,29.1-12.7,53.9-34.7,73.2 c-15.5,13.5-33.8,20.9-54.2,23c-12.4,1.3-24.6,0.6-36.6-2.8c-3.2-0.9-4.7-2.3-4.5-5.9c0.3-6.8,0.2-13.7,0-20.5 c-0.1-3.8,0.2-5.1,4.9-3.9c27.4,7.1,52,2.1,71.5-19.5c10.5-11.6,16-25.6,17.5-41.1c2.2-22.5-2.2-43.4-17.5-60.6 c-19.1-21.5-43.4-26.3-70.6-19.9c-5.6,1.3-5.6,1.6-5.6-4.4c0-6.7,0.2-13.3,0.1-20c0-2.5,0.7-3.9,3.3-4.7 C385.5,49.3,394.7,47.3,402.6,47.8z" class="st75"/><path d="M163.3,235.5c0-4.5,0.1-9,0-13.5c-0.1-2.7,0.8-4.3,3.5-5.2c22.8-8,37.5-24.3,45.3-46.6 c11.6-32.9,4.9-76.6-27.1-100c-5.5-4.1-11.6-7.2-18.1-9.4c-2.6-0.9-3.6-2.3-3.6-5.1c0.1-9.2,0.1-18.3,0-27.5c0-3.4,0.9-4.2,4.4-3.4 c35.3,8.4,62.3,28,77.8,60.8c19.7,41.6,17.2,82.9-8.8,121.4c-16.6,24.6-40.5,39.4-69.5,46c-2.9,0.7-4,0-4-3 C163.4,245.1,163.3,240.3,163.3,235.5C163.3,235.5,163.3,235.5,163.3,235.5z" class="st75"/><path d="M956.9,179.1c0,22-0.1,44,0.1,65.9c0,4-1,5.7-5.2,5.6c-8.3-0.2-16.6-0.3-25-0.1c-3.9,0.1-5-1.3-5-5.2 c0.1-40,0-79.9,0-119.9c0-11.8-2.2-22.9-9.5-32.4c-10.9-14-26-16.2-42.3-14.5c-3,0.3-5.9,1-8.8,1.9c-2.8,0.9-3.6,0-3.6-2.7 c0.1-7.8,0.1-15.7,0-23.5c0-2.3,1-3.1,3.1-3.6c22.6-5.2,44.8-4.5,65.2,7.7c16.5,9.9,25.3,25.4,29.2,44c1.6,7.6,1.7,15.2,1.8,22.9 C957,143.1,956.9,161.1,956.9,179.1z" class="st75"/><path d="M816,151.5c0,31-0.1,62,0.1,93c0,4.8-1.4,6.4-6.2,6.2c-7.8-0.3-15.7-0.3-23.5,0c-4,0.1-5.5-1-5.5-5.3 c0-36.2-0.2-72.3-0.3-108.5c-0.1-26.2,0.1-52.3-0.1-78.5c0-4.5,1.3-5.8,5.7-5.6c8.2,0.3,16.3,0.3,24.5,0.1c4-0.1,5.1,1.1,5.1,5.1 c-0.2,31.2-0.1,62.3-0.1,93.5C815.9,151.5,816,151.5,816,151.5z" class="st75"/><path d="M330.9,326.9c-11.6,0-23.2,0-34.8-0.1c0-36.8-0.1-73.6-0.1-110.4c0-25.3,0.1-50.6-0.1-76c0-3.8,0.9-5.3,5-5.1 c8.3,0.3,16.7,0.3,25,0c4.1-0.2,5.3,1,5.3,5.2c-0.2,29.7-0.1,59.3-0.1,89C331,261.9,331,294.4,330.9,326.9z" class="st75"/><path d="M1032.3,141c0-33.8,0.1-67.7-0.1-101.5c0-4.6,0.9-6.5,5.9-6.2c9.4,0.4,9.4,0.1,9.4,9.6 c0,65.8,0,131.6,0,197.5c0,11,1.5,9.2-9.6,9.3c-4.8,0.1-5.7-1.8-5.7-6.1C1032.4,209.3,1032.4,175.1,1032.3,141 C1032.4,141,1032.3,141,1032.3,141z" class="st76"/><path d="M1085.9,141.8c0,34-0.1,67.9,0.1,101.9c0,4.8-1.2,6.4-6.1,6.2c-10.7-0.5-9.2,1.1-9.2-9.4 c0-66.8,0-133.5,0-200.3c0-6.7,0-6.8,6.8-6.7c9.8,0.1,8.4-1.2,8.4,8.5C1085.9,75.2,1085.9,108.5,1085.9,141.8z" class="st77"/><path d="M1186.9,140.9c0.9-30.8,11.6-56.7,37.8-74.7c5.5-3.8,11.6-6.4,17.9-8.6c3.1-1.1,4.3-0.6,4.6,3.1 c0.5,7.3-1,12-8.8,15.6c-19.8,9.3-30.3,26.7-34.5,47.5c-4.6,22.4-1.4,43.7,11.8,63c6.8,10,15.8,17.6,27.1,22 c3.6,1.4,4.6,3.2,4.5,6.9c-0.2,11.4-0.2,11.7-10.6,7.1c-27.2-12-42-33.6-48-62.1C1187.3,154.3,1186.8,147.7,1186.9,140.9z" class="st75"/><path d="M1352.8,141.3c-0.5,28.5-9.6,53.1-32.5,71.5c-7.1,5.7-15.1,9.6-23.7,12.5c-3.2,1.1-3.6,0.1-3.8-2.7 c-0.6-7.2,0.1-12.2,8.4-16.1c21.6-10.2,32.1-29.4,35.5-52.2c3.2-21.9-0.9-42.4-14.4-60.5c-6.4-8.6-14.5-15.2-24.4-19.2 c-3.9-1.6-5.2-3.7-5.2-7.7c-0.1-11.3-0.2-11.5,10.1-6.8c29.4,13.1,44.5,36.8,49,67.9c0.5,3.1,0.6,6.3,0.9,9.4 C1352.9,138.7,1352.8,140,1352.8,141.3z" class="st75"/><path d="M709.3,200c5.7,0,11.3,0.1,17,0c3.7-0.1,3.9,1.2,2.3,4c-8.8,15.6-21,27.8-36.4,36.9c-10,5.9-20.7,9.9-32,12.4 c-3.1,0.7-4.3,0.1-4.3-3.2c0.1-8,0.1-16,0-24c0-2.7,0.9-4.2,3.6-5.1c10.9-3.4,20.2-9.3,27.2-18.5c1.4-1.9,3.1-2.6,5.5-2.6 C698,200,703.7,199.9,709.3,200C709.3,199.9,709.3,199.9,709.3,200z" class="st75"/></g></svg>