<svg xmlns="http://www.w3.org/2000/svg" xmlns:xlink="http://www.w3.org/1999/xlink" id="Layer_1" x="0" y="0" enable-background="new 0 0 324 78" version="1.1" viewBox="0 0 324 78" xml:space="preserve"><style type="text/css">.st73{fill:#b5b4b5}.st74{fill:#1368b2}</style><g><path d="M287.4,2.8c-5.8,0.9-10.8,3.4-15,7.4c-0.8,0.8-1.6,1.6-2.2,2.6c11.8-1.8,21.8,1.5,29.4,10.7 c7.6,9.1,9.1,19.6,5.1,31c4.6-2.5,8.1-5.9,10.6-10.3c5.9-10.4,5-22.5-2.6-31.8c-4.2-5.1-9.6-8.2-16-9.5c-0.6-0.1-1.5,0.2-1.9-0.8 c-2.1,0-4.2,0-6.3,0C288.5,3,287.8,2.8,287.4,2.8z" class="st73"/><path d="M272.7,9.4c-1.3,1.1-2.4,2.4-3.5,3.9c12.1-2.1,22.3,1.1,30.1,10.3c7.8,9.3,9,20,4.8,31.5 c2.7-1.3,4.9-2.9,6.8-4.8c6.7-6.7,9.6-14.7,8.3-24.1c-1.6-10.7-7.6-18-17.6-22.2c-2.2-0.9-4.5-1.2-6.7-1.8c0.3,1,1.2,0.7,1.9,0.8 c6.4,1.3,11.8,4.4,16,9.5c7.6,9.2,8.5,21.4,2.6,31.8c-2.5,4.4-6,7.7-10.6,10.3c3.9-11.4,2.4-21.9-5.1-31 c-7.6-9.1-17.6-12.4-29.4-10.7c0.6-1,1.4-1.8,2.2-2.6c4.3-4,9.2-6.5,15-7.4c0.5-0.1,1.1,0.1,1.2-0.6c-0.1,0.1-0.2,0.2-0.3,0.2 C282.3,3,277.2,5.5,272.7,9.4z" class="st73"/><path d="M6.8,28.9c0.7,1.9,1.9,3.5,3.5,4.8c3.4,2.5,7.1,4.4,10.7,6.6c0.9,0.6,1.7,1.2,2.4,2c2.4,2.6,1.3,6.7-2.1,7.8 c-2.2,0.7-4.4,0.5-6.6,0.3c-1.9-0.2-3.8-0.1-5.7-0.4c-1-0.1-1.5,0.4-1.5,1.4c0,0.1,0,0.2,0,0.3c-0.2,3.5,0,3.7,3.5,4.2 c4.3,0.6,8.6,0.8,12.8-0.2c4.5-1.1,8.2-4.9,8.1-10.4c-0.1-3.8-1.5-6.7-4.5-8.9c-2.9-2.1-6.2-3.6-9.2-5.4c-1-0.6-2-1.1-2.9-1.8 c-1.4-1.1-2.3-2.5-1.8-4.4c0.4-1.7,1.9-2.9,3.9-3c3-0.1,6.1-0.3,9.1,0.1c1,0.1,2.1,0.1,3.1,0.1c0.8,0,1.2-0.4,1.2-1.2 c0-0.9,0-1.8,0-2.7c0-0.8-0.4-1.3-1.2-1.4c-1.5-0.3-2.9-0.5-4.4-0.6c-3.6-0.2-7.1-0.6-10.7,0.2c-3.8,0.8-6.8,2.7-7.9,6.7 C6.5,23,6.5,23.4,6,23.4c0,1.5,0,3,0,4.4C6.7,27.9,6.6,28.5,6.8,28.9z" class="st74"/><path d="M13.6,36.3c0.3,0.1,0.5,0.3,0.8,0.5c2.7,1.7,5.4,3.1,8,5c1.8,1.3,2.3,3.1,1.7,5.2c-0.5,1.9-1.9,2.7-3.7,3 c-0.8,0.1-1.6,0.2-2.3,0.2c-3,0-6.1-0.2-9.1-0.5c-1.5-0.1-1.8,0.2-1.8,1.7c0,0.9,0,1.7,0,2.6C7,55,7.5,55.6,8.6,55.8 c4.4,0.9,8.9,1.2,13.4,0.5c3.8-0.6,7.2-2.2,9.1-5.9c2.1-4.1,2-10.6-3.4-14.5c-2.7-1.9-5.7-3.4-8.5-5c-1.4-0.8-2.8-1.5-4.1-2.6 c-1.2-1-1.7-2.2-1.3-3.7c0.3-1.4,1.3-2.2,2.7-2.6c1-0.3,2-0.4,3-0.4c3.4,0,6.8,0.2,10.2,0.5c1.2,0.1,1.7-0.3,1.7-1.5 c-0.1-1,0-2,0-3c0-1-0.4-1.5-1.4-1.6c-3.8-0.7-7.7-1-11.6-0.9c-1.3,0-2.6,0.2-3.9,0.5C9.9,16.5,7,18.9,6,23.4 c0.5,0,0.5-0.4,0.6-0.7c1.1-4.1,4-5.9,7.9-6.7c3.5-0.8,7.1-0.4,10.7-0.2c1.5,0.1,2.9,0.3,4.4,0.6c0.8,0.2,1.2,0.6,1.2,1.4 c0,0.9,0,1.8,0,2.7c0,0.8-0.4,1.2-1.2,1.2c-1,0-2.1,0-3.1-0.1c-3-0.4-6.1-0.2-9.1-0.1c-2,0.1-3.4,1.3-3.9,3 c-0.5,1.9,0.4,3.3,1.8,4.4c0.9,0.7,1.9,1.2,2.9,1.8c3.1,1.8,6.3,3.3,9.2,5.4c3,2.2,4.5,5.1,4.5,8.9c0.1,5.6-3.6,9.3-8.1,10.4 c-4.3,1.1-8.5,0.8-12.8,0.2c-3.5-0.5-3.7-0.7-3.5-4.2c0-0.1,0-0.2,0-0.3c0-1,0.6-1.5,1.5-1.4c1.9,0.3,3.8,0.2,5.7,0.4 c2.2,0.2,4.4,0.4,6.6-0.3c3.4-1.1,4.5-5.1,2.1-7.8c-0.7-0.8-1.5-1.4-2.4-2c-3.5-2.2-7.3-4.1-10.7-6.6c-1.7-1.2-2.8-2.8-3.5-4.8 c-0.1-0.4-0.1-1-0.8-1.1C7.1,31.9,10.1,34.4,13.6,36.3z" class="st74"/><path d="M285.1,35.3c0-1.4-0.5-1.9-2-1.9c-2.3,0-4.5,0-7.3,0c-2.5,0.1-5.5-0.1-8.5,0.2c-8.4,1-12.3,8.9-7.8,16.1 c0.3,0.4,0.2,0.6-0.1,1c-2.2,2.6-2.2,5.9,0.1,8.4c0.5,0.5,0.6,0.8,0.1,1.3c-3.3,3.5-3.2,11.3,3.4,13.6c5.4,1.9,10.9,1.8,16.4,0.1 c1.3-0.4,2.5-1.2,3.4-2.3c3.3-4.1,1.8-10-3.1-12c-4-1.7-8.3-2.3-12.5-3.3c-0.8-0.2-1.7-0.4-2.5-0.7c-0.8-0.3-1.1-1-0.8-1.8 c0.3-0.8,0.8-0.9,1.7-0.7c4.1,1,8.1,1,12.1-0.4c5.2-1.8,7.6-7.9,5.1-12.9c-0.5-0.9,0-1.1,0.6-1.2c1.3-0.3,1.8-1,1.6-2.3 C285.1,36,285.1,35.6,285.1,35.3z M265.8,62.2c0.3-0.3,0.6-0.2,1-0.1c2.8,0.6,5.6,1.2,8.3,2.1c1.8,0.6,2.3,1.3,2.2,2.6 c-0.1,1.5-0.9,2.2-2.6,2.6c-0.3,0.1-0.7,0.2-1,0.2c-0.8,0-1.6,0-2.5,0c-1.4,0.1-2.7,0-4-0.3c-1.2-0.3-2.2-1-2.4-2.3 C264.5,65.3,264.6,63.7,265.8,62.2z M276.3,45.9c-0.3,1.1-1.2,1.7-2.3,2c-2,0.6-4.1,0.6-6.2,0c-2-0.6-2.9-1.8-2.9-3.9 c0-2.4,0.8-3.9,2.7-4.5c1-0.4,2.1-0.4,3.2-0.4c0.4,0,0.9,0,1.3,0.1C276.4,39.3,277.3,42.3,276.3,45.9z" class="st74"/><path d="M129.9,33.3c-1.3,0-2.6,0.1-3.9,0c-1.2-0.1-1.6,0.4-1.8,1.5c-0.9,6.4-1.9,12.7-2.8,19.1 c-0.2,1.3-0.2,2.7-0.8,4.3c-0.2-0.7-0.3-1.1-0.4-1.5c-1.5-5.9-2.9-11.8-4.4-17.7c-0.5-1.9-1-2.2-2.9-2.2c-1.3,0-2.6,0-3.9,0 c-2.1,0-2.6,0.4-3.1,2.4c-1.4,5.7-2.8,11.5-4.2,17.2c-0.1,0.6-0.1,1.2-0.7,1.7c-0.1-0.6-0.2-1.1-0.3-1.6 c-0.8-5.6-1.7-11.2-2.5-16.8c-0.1-0.6-0.1-1.2-0.9-1.2c-0.7,0-0.9,0.5-1.1,1.1c-1,3.1-1.9,6.1-2.9,9.2c-0.3,0.8-0.3,1.5-0.1,2.3 c0.6,2.9,1.2,5.7,1.7,8.6c0.8,4,1.9,4.9,5.9,4.8c0.3,0,0.5,0,0.8-0.1c2.8-0.3,4.1-1.4,4.8-4.1c0.9-3.4,1.8-6.8,2.6-10.2 c0.6-2.2,1.2-4.4,1.8-7c0.2,0.6,0.3,0.8,0.3,1.1c1.3,5.1,2.7,10.3,4,15.4c1,4,2.6,5.1,6.8,4.9c3.2-0.2,4.2-1,4.9-4.2 c1-4.8,1.9-9.6,2.9-14.3c0.7-3.5,1.4-7,2.1-10.5C131.9,33.7,131.5,33.3,129.9,33.3z" class="st74"/><path d="M52.6,41.1c-0.7-0.9-0.6-1.4,0.1-2.2c3.3-3.9,6.5-8,9.8-11.9c0.3-0.4,0.8-0.7,0.5-1.2 c-0.3-0.5-0.8-0.4-1.3-0.4c-1.6,0-3.2,0-4.8,0c-1.1-0.1-1.9,0.4-2.5,1.3c-2.6,3.5-5.3,7-7.9,10.6c-0.2,0.3-0.3,0.7-0.9,0.8 c0-0.5,0-1,0-1.4c0-6.7,0-13.4,0-20.1c0-1.4-0.4-1.8-1.8-1.8c-1.3,0-2.6,0-3.9,0c-1,0-1.6,0.4-1.6,1.5c0,12.9,0,25.7,0,38.6 c0,1.1,0.5,1.6,1.6,1.6c1.2,0,2.4,0,3.7,0c1.8,0,2.1-0.3,2.1-2c0-3.7,0-7.3,0-11.3c0.4,0.5,0.5,0.6,0.6,0.8 c2.5,3.7,5.1,7.4,7.6,11.1c0.7,1,1.5,1.5,2.8,1.5c1.7-0.1,3.4,0,5.1,0c0.5,0,1,0,1.3-0.4c0.3-0.5-0.2-0.9-0.4-1.3 C59.2,50.1,55.9,45.5,52.6,41.1z" class="st74"/><path d="M92.6,25.4c-1.3,0-2.5,0-3.8,0c-2.4,0-2.4,0-3,2.3c-1.8,7-3.5,14.1-5.3,21.1c-0.1,0.3,0,1-0.6,1 c-0.5,0-0.6-0.6-0.7-1c-0.1-0.2-0.1-0.4-0.2-0.6c-1.6-6.5-3.2-12.9-4.8-19.4c-1-3.9-0.2-3.4-4.4-3.4c-0.8,0-1.7,0-2.5,0 c-1.3,0-1.6,0.4-1.2,1.6c0.6,2.3,1.3,4.6,2,6.9c1.7,6,3.4,12,5.2,17.9c0.7,2.4,1.8,4.4,4.7,4.4c0.7,0,0.6,0.4,0.5,0.9 c-0.6,3.3-2.2,4.4-5.5,4.2c-1.6-0.1-3.2-0.2-4.8-0.3c-1.1-0.1-1.6,0.3-1.6,1.5c0.1,0.8,0.1,1.7,0,2.5c-0.1,0.9,0.3,1.3,1.1,1.5 c2.3,0.6,4.5,0.7,6.9,0.7c5.5-0.1,8.2-1.9,9.7-7.2c3.2-11,6.3-22,9.5-33C94,25.8,93.7,25.4,92.6,25.4z" class="st74"/><path d="M195.7,49c-0.6-0.8-0.5-1.3,0.1-2c3.3-4,6.6-8,9.8-12.1c0.3-0.4,0.7-0.7,0.5-1.3c-0.3-0.5-0.8-0.4-1.3-0.4 c-1.7,0-3.3,0-5,0c-1,0-1.7,0.4-2.3,1.2c-1.7,2.3-3.4,4.6-5.2,6.9c-1.2,1.5-2.3,3.1-3.7,4.9c0-0.7,0-1.1,0-1.5c0-6.8,0-13.7,0-20.5 c0-1.2-0.4-1.8-1.7-1.7c-1.2,0.1-2.4,0-3.5,0c-2,0-2.1,0.1-2.1,2.1c0,12.3,0,24.7,0,37c0,0.4,0,0.8,0,1.2c0,0.9,0.5,1.4,1.4,1.4 c1.3,0,2.6,0,3.9,0c1.7,0,2-0.2,2-1.9c0-3.7,0-7.4,0-11.4c0.4,0.5,0.5,0.7,0.7,0.9c2.5,3.7,5.1,7.3,7.5,11c0.7,1,1.5,1.6,2.8,1.5 c1.6-0.1,3.3,0,5,0c0.5,0,1.2,0.2,1.5-0.5c0.2-0.6-0.3-1-0.6-1.4C202.3,57.9,199,53.4,195.7,49z" class="st74"/><path d="M243.2,33c-3.6-0.3-6.9,0.3-10.1,2.4c-0.4-2.1-0.4-2.1-2.4-2.1c-0.9,0-1.7,0-2.6,0c-2,0-2.2,0.2-2.2,2.2 c0,6.7,0,13.3,0,20c0,2.3,0,4.5,0,6.8c0,1.6,0.3,1.8,1.8,1.8c1,0,2.1,0,3.1,0c2.2,0,2.3-0.2,2.3-2.4c0-6.5,0-13.1,0-19.6 c0-0.5-0.2-1.1,0.5-1.4c2.3-1.1,4.6-2.1,7.3-1.6c1.9,0.3,2.6,1.1,2.8,3c0.1,0.9,0.1,1.7,0.1,2.6c0,5.9,0,11.8,0,17.7 c0,1.2,0.5,1.7,1.7,1.7c1.3-0.1,2.5,0,3.8,0c1.5,0,1.7-0.2,1.7-1.8c0-6.1,0-12.2,0-18.3c0-1.7-0.2-3.4-0.6-5 C249.6,35.3,247,33.3,243.2,33z" class="st74"/><path d="M151.8,33.4c-4.5-0.9-9-0.4-13.5,0.4c-0.8,0.1-1.1,0.6-1,1.4c0,1,0.1,1.9,0,2.9c-0.1,1.2,0.5,1.4,1.5,1.3 c2.6-0.2,5.2-0.4,7.8-0.4c4.8,0,5.6,0.9,5.6,5.6c0,1-0.4,1.2-1.3,1.2c-2.3,0-4.7-0.1-7,0.3c-4.8,0.7-7.6,3.1-8.3,7 c-0.2,1.2-0.2,2.3-0.1,3.5c0.2,4.1,2.4,6.7,6.4,7.6c1.4,0.3,2.8,0.4,4.3,0.3c2.2-0.3,4.3-1.1,6.3-2.2c-0.1,1.5,0.7,2,2.1,1.8 c1.1-0.1,2.3-0.1,3.4,0c1.1,0,1.6-0.5,1.6-1.5c0-6.8,0.1-13.7-0.1-20.5C159.2,37.3,156.5,34.4,151.8,33.4z M149.8,58.4 c-1.5,0.5-3.1,0.6-4.6,0.4c-0.6-0.1-1.2-0.3-1.6-0.8c-1.5-1.6-0.7-5.8,1.4-6.7c2.2-0.9,4.5-0.6,6.8-0.6c0.5,0,0.5,0.4,0.5,0.8 c0,0.9,0,1.8,0,2.7c0,0.3,0,0.6,0,0.9C152.2,57.6,152.2,57.6,149.8,58.4z" class="st74"/><path d="M172.4,22.6c-1.2,0.1-2.4,0-3.7,0c-1.8,0-2,0.2-2,2c0,10.2,0,20.5,0,30.7c0,2.3,0,4.6,0,6.9c0,1.8,0.2,2,2,2 c1.1,0,2.3,0,3.4,0c1.8,0,1.9-0.1,1.9-1.8c0-6.3,0-12.6,0-18.9c0-6.4,0-12.8,0-19.2C174,23.1,173.7,22.5,172.4,22.6z" class="st74"/><path d="M217.2,33.3c-1.3,0-2.5,0-3.8,0c-1.7,0-2,0.3-2,2c0,4.4,0,8.9,0,13.3c0,4.6,0,9.2,0,13.7 c0,1.5,0.3,1.8,1.8,1.8c1.3,0,2.6,0,3.9,0c1,0,1.6-0.4,1.6-1.5c0-9.3,0-18.7,0-28C218.8,33.7,218.2,33.3,217.2,33.3z" class="st74"/><path d="M217.6,22.3c-1,0-1.9,0-2.9,0c-3.7,0-3.4-0.3-3.4,3.3c0,3.8-0.6,3.8,3.7,3.7c0.8,0,1.7,0,2.5,0 c0.9,0,1.4-0.5,1.4-1.4c0-1.5,0-3,0-4.4C218.9,22.7,218.5,22.3,217.6,22.3z" class="st74"/></g></svg>