<svg xmlns="http://www.w3.org/2000/svg" xmlns:xlink="http://www.w3.org/1999/xlink" id="Layer_1" x="0" y="0" enable-background="new 0 0 324 109.5" version="1.1" viewBox="0 0 324 109.5" xml:space="preserve"><style type="text/css">.st73{clip-path:url(#SVGID_2_)}.st74,.st75,.st76{clip-path:url(#SVGID_4_)}.st75{fill:#72af37}.st76{fill:#99999a}</style><g><g><defs><rect id="SVGID_1_" width="612" height="792" x="-201.5" y="-28"/></defs><clipPath id="SVGID_2_"><use overflow="visible" xlink:href="#SVGID_1_"/></clipPath><g class="st73"><defs><rect id="SVGID_3_" width="639.5" height="827.5" x="-158" y="-359"/></defs><clipPath id="SVGID_4_"><use overflow="visible" xlink:href="#SVGID_3_"/></clipPath><path d="M39,64.7c0,2.1-0.4,4-1.3,5.8c-0.9,1.8-2.1,3.3-3.7,4.5c-1.6,1.2-3.4,2.2-5.6,2.9c-2.2,0.7-4.6,1-7.1,1 c-3.1,0-5.9-0.4-8.3-1.3c-2.5-0.8-4.9-2.2-7.4-4.2l4.1-6.6c2,1.6,3.7,2.8,5.3,3.6c1.6,0.8,3.2,1.1,4.8,1.1c2,0,3.6-0.5,4.9-1.6 c1.2-1,1.8-2.4,1.8-4.2c0-0.8-0.1-1.5-0.3-2.1c-0.2-0.7-0.6-1.3-1.2-2c-0.6-0.7-1.4-1.4-2.5-2.3c-1-0.8-2.4-1.8-4-3 c-1.3-0.9-2.5-1.8-3.7-2.7c-1.2-0.9-2.3-2-3.3-3c-1-1.1-1.8-2.3-2.4-3.6c-0.6-1.3-0.9-2.8-0.9-4.5c0-2,0.4-3.7,1.2-5.3 c0.8-1.6,1.9-3,3.3-4.1c1.4-1.1,3.1-2,5.1-2.6c2-0.6,4.1-0.9,6.5-0.9c2.5,0,4.8,0.3,7.1,1c2.3,0.7,4.4,1.6,6.4,2.9l-3.7,5.9 c-2.5-1.8-5.2-2.6-7.9-2.6c-1.7,0-3.1,0.4-4.2,1.3c-1.1,0.9-1.7,2-1.7,3.3c0,1.3,0.5,2.4,1.5,3.4c1,1,2.6,2.4,5,4.3 c2.4,1.8,4.4,3.3,6,4.6c1.6,1.3,2.8,2.6,3.7,3.7c0.9,1.2,1.6,2.4,1.9,3.6C38.8,61.9,39,63.2,39,64.7" class="st74"/><path d="M80.8,53.6c0-5.2-1-9.3-3.1-12.3c-2.1-3-4.9-4.5-8.6-4.5c-3.8,0-6.8,1.6-9,4.8c-2.2,3.2-3.3,7.5-3.3,12.9 c0,5.3,1.1,9.5,3.3,12.5c2.2,3,5.2,4.5,9,4.5c2.3,0,4.2-0.6,5.7-1.7c1.5-1.2,2.7-2.6,3.6-4.4c0.9-1.8,1.6-3.8,1.9-5.9 C80.6,57.4,80.8,55.4,80.8,53.6 M94,53.1c0,3.7-0.6,7.1-1.7,10.3c-1.1,3.1-2.7,5.8-4.7,8.2c-2,2.3-4.4,4.1-7.2,5.4 c-2.8,1.3-5.8,1.9-9,1.9c-1.5,0-2.8-0.1-4.1-0.4c-1.3-0.3-2.5-0.7-3.6-1.3c-1.1-0.6-2.3-1.4-3.4-2.3c-1.1-0.9-2.3-2.1-3.5-3.5v30 H44.6V30.5h12.1l0.1,6.9c2.2-2.8,4.6-4.8,7.2-6.1c2.6-1.3,5.6-1.9,9-1.9c3.1,0,5.9,0.6,8.5,1.7c2.6,1.2,4.8,2.8,6.6,4.9 c1.9,2.1,3.3,4.6,4.3,7.5C93.5,46.3,94,49.6,94,53.1" class="st74"/><rect width="12.5" height="69.3" x="99.4" y="8.4" class="st74"/><path d="M152.6,77.7l0-6.3c-2.4,2.6-4.9,4.6-7.4,5.7c-2.5,1.2-5.5,1.7-8.8,1.7c-3.7,0-6.9-0.7-9.4-2.2 c-2.6-1.5-4.4-3.7-5.5-6.6c-0.3-0.7-0.6-1.4-0.7-2.2c-0.2-0.8-0.3-1.6-0.4-2.6c-0.1-1-0.2-2.1-0.2-3.4c0-1.3,0-2.8,0-4.6V30.4 h12.5v27.1c0,2.4,0.1,4.2,0.3,5.5c0.2,1.3,0.6,2.4,1.2,3.4c1.5,2.7,4,4,7.7,4c4.7,0,7.9-2,9.7-5.9c0.4-1,0.8-2.1,1-3.4 c0.2-1.2,0.3-3,0.3-5.3V30.4h12.5v47.3H152.6z" class="st74"/><path d="M206.3,77.7v-27c0-2.4-0.1-4.2-0.3-5.5c-0.2-1.3-0.6-2.4-1.2-3.4c-1.5-2.6-4-4-7.7-4c-2.3,0-4.4,0.5-6,1.5 c-1.7,1-2.9,2.4-3.7,4.3c-0.4,1.1-0.7,2.2-0.9,3.4c-0.2,1.2-0.2,2.9-0.2,5.1v25.5h-12.6V30.5h12.6l0,6.3c2.4-2.6,4.9-4.6,7.4-5.7 c2.5-1.2,5.5-1.8,8.8-1.8c3.7,0,6.9,0.8,9.4,2.3c2.6,1.5,4.4,3.7,5.5,6.6c0.3,0.7,0.5,1.4,0.7,2.1c0.2,0.7,0.3,1.6,0.5,2.5 c0.1,0.9,0.2,2.1,0.2,3.4c0,1.3,0.1,2.8,0.1,4.7v26.8H206.3z" class="st74"/><polygon points="258.8 78.7 240 52.6 240 77.7 227.4 77.7 227.4 8.4 240 8.4 240 49.1 241.3 49.1 258 29.7 267.5 33.8 251.4 51 270.4 74.6" class="st74"/><polygon points="281.2 76.4 281.2 68.1 310.5 53.7 281.2 39.4 281.2 31 319 49.9 319 57.7" class="st75"/><path d="M284.9,18.7c2.3,0,4.2,1.9,4.2,4.2c0,2.4-1.8,4.3-4.2,4.3c-2.3,0-4.2-1.9-4.2-4.3 C280.6,20.6,282.5,18.7,284.9,18.7L284.9,18.7z M284.9,19.4c-1.9,0-3.4,1.6-3.4,3.6c0,2,1.5,3.6,3.4,3.6c1.9,0,3.4-1.6,3.4-3.6 C288.3,21,286.8,19.4,284.9,19.4L284.9,19.4z M284.1,25.4h-0.8v-4.7c0.4-0.1,0.8-0.1,1.3-0.1c0.7,0,1.2,0.2,1.5,0.4 c0.3,0.2,0.4,0.5,0.4,1c0,0.6-0.4,1-0.9,1.2v0c0.4,0.1,0.7,0.5,0.8,1.2c0.1,0.7,0.2,1,0.3,1.2h-0.8c-0.1-0.2-0.2-0.6-0.3-1.2 c-0.1-0.6-0.4-0.8-1-0.8h-0.5V25.4z M284.1,22.8h0.5c0.6,0,1.2-0.2,1.2-0.8c0-0.4-0.3-0.8-1.2-0.8c-0.2,0-0.4,0-0.5,0V22.8z" class="st76"/></g></g></g></svg>