<svg xmlns="http://www.w3.org/2000/svg" xmlns:xlink="http://www.w3.org/1999/xlink" id="Layer_1" x="0" y="0" enable-background="new 0 0 440.5 223.5" version="1.1" viewBox="0 0 440.5 223.5" xml:space="preserve"><style type="text/css">.st43{fill:#6d6d6d}.st44{fill:#437a44}.st45{fill:#5f6971}.st46{fill:#95c9e3}.st47{fill:#312f58}.st48{fill:#3a8cca}.st49{fill:#298a4b}.st50{fill:#52a24b}.st51{fill:#309393}.st52{fill:#215593}.st53{fill:#72838c}.st54{fill:#2d6ea6}.st55{fill:#5991c4}.st56{fill:#85b946}.st57{fill:#294d56}.st58{fill:#3b94d1}.st59{fill:#acd3ed}.st60{fill:#2c807f}.st61{fill:#456dac}.st62{fill:#273f31}.st63{fill:#3a8dca}.st64{fill:#55ade2}.st65{fill:#73baab}.st66{fill:#6bb4e3}.st67{fill:#255177}.st68{fill:#253c33}.st69{fill:#477f45}.st70{fill:#6e6e6e}.st71{fill:#2e6fa6}.st72{fill:#7abce6}.st73{fill:#309494}.st74{fill:#27403c}.st75{fill:#51a24b}.st76{fill:#536f3e}.st77{fill:#32908f}.st78{fill:#b6ce9a}.st79{fill:#57aee2}.st80{fill:#5aafe2}.st81{fill:#939394}.st82{fill:#8dc2de}.st83{fill:#245177}.st84{fill:#72838d}.st85{fill:#2e6fa7}.st86{fill:#858585}</style><g><path d="M15.4,29.9c2.5,5.5,5.1,11.1,7.8,16.5c1.4,2.8,3.6,4.8,7.2,4.8c3.6,0,5.6-2.1,7.1-4.9 c1.6-3.2,2.8-6.6,4.5-9.6c2.6-4.6,3.8-9.9,6.8-14.4c0.6-1,0.6-2.8,2.5-2.2c1.9,0.5,1.5,2.2,1.5,3.5c0,7.1,0,14.3,0,21.4 c0.1,4.8,3.6,7.6,7.9,5.9c3-1.2,4.1-4,4.1-7.1c0.1-6.3,0-12.5,0.1-18.8c0-3.2,1.9-5,4.9-5.3c3.2-0.4,5.5,0.9,6.2,4.3 c0.3,1.2,0.3,2.5,0.3,3.8c0,5.4,0,10.7,0,16.1c0.1,4.7,2.3,7.4,5.9,7.4c4,0,5.8-2.2,5.8-7.2c0-6-0.1-12,0.1-18 c0.1-3.7,2.9-6.5,6.2-6.5c3.4,0,5.9,2.6,6,6.5c0.1,6.1,0,12.2,0.1,18.4c0,4.4,2.2,6.8,6,6.8c3.7,0,6-2.5,6.1-6.9 c0.1-3.6,0-7.1,0-10.7c0-3.6,0-7.1,0-10.7c0-2.1-0.3-4-1.4-5.9c-4.6-8.2-14.7-10.4-22.7-4.9c-1.2,0.9-2.2,2.5-4.2,1 C77,7.9,71.8,7.8,64.4,12.6c-2,1.3-3.3,1.3-5.2-0.3C52.6,6.8,43.3,8.5,39.4,16c-2.8,5.4-4.9,11.1-7.4,16.7 c-0.4,0.9-0.4,2.2-1.7,2.2c-1.1,0-1.1-1.2-1.5-2c-2.8-6.5-5.6-13.1-8.4-19.6c-1.5-3.6-4.6-5-7.9-3.7c-2.9,1.1-4,4.6-2.6,8.1 C11.7,21.8,13.6,25.9,15.4,29.9z" class="st43"/><path d="M405.9,188.2c0-6.6,0-13.2,0-19.9c0-1.3-0.5-2.8,0.7-4c0,0,0,0,0,0c-6.5-8.2-13-16.5-19.6-24.6 c-1.4-1.7-1.7-2.8-0.1-4.7c6.5-7.8,12.7-15.8,19-23.7c0,0,0,0,0,0c-0.2-1.5-1.2-1.4-2.3-1.4c0,0,0,0,0,0c0,0,0,0,0,0 c-1.2,2.1-3.5,2.4-5.3,3.5c-15.5,9.1-31.1,18.1-46.7,27.1c-0.5,0.3-1.1,0.7-1.7,0c-3.3,3-5.9,6.5-8.3,10.2c1.9,3,5.4,3.7,8.2,5.2 c4.3,2.3,7.9,5.9,12.9,7c1-1.3,1.9-2.6,3-3.9c1.4-1.8,2.6-2.5,4.4-0.1c4,5.5,8.3,10.8,12.4,16.1c7.5,4.4,15.5,8.2,22.7,13.2 C405.4,188.2,405.6,188.2,405.9,188.2z" class="st44"/><path d="M405.9,188.1C405.9,188.1,405.9,188.1,405.9,188.1L405.9,188.1C405.9,188.2,405.9,188.1,405.9,188.1z" class="st44"/><path d="M135.8,158.9c0.9-0.5,1.8-0.8,2.8-1.2c0,0,0,0,0,0c0,0,0,0,0,0c0.2-0.1,0.4-0.1,0.6-0.1c0,0,0,0,0,0 c0.2-15.6,0.6-31.3,0.1-46.9c-0.2,0-0.4,0.1-0.7,0.1c0,0,0,0,0,0c0,0,0,0,0,0c0,9.1,0,18.1,0,27.2c0,0.9,0.6,2.3-0.5,2.8 c-1.1,0.4-2.1-0.4-3.1-1c-7.1-4.2-13.9-8.9-21.5-12.1c0,12.9,0,25.8,0,38.7c-4.9-5-8.8-10.2-12.7-15.3 c-5.2-6.6-10.4-13.1-15.6-19.6c-1.2,0.8-0.9,2-0.9,3.1c0,12.2,0,24.5,0.1,36.7c3.3,4.2,6.5,8.3,9.8,12.5c3-3.4,7.4-4.8,11.1-6.9 C115.5,170.9,125.7,164.9,135.8,158.9z" class="st45"/><path d="M35.6,110.2c1.6-0.8,1.9,0.5,2.4,0.5c0,0,0,0,0,0c0.9-1,2.1-0.6,3.2-0.6c8,0,16-0.1,24,0 c1.5,0,2.9,0.4,4.4,0.7c0,0,0,0,0,0c-5-6.4-10-12.8-14.9-19.3c-1.4,1.1-2.4-0.3-3.3-0.8c-10.3-5.9-20.5-11.9-30.8-17.8 c-1.4-0.8-2.8-1.8-4.4-2c-1.8,0.8-2.9,3-5.3,2.3c0,0,0,0,0,0c0,0,0,0,0,0C10,74,10.1,75,10.1,76c-0.3,12.5,0.1,24.9-0.6,37.4 c-0.7,12.1-0.2,24.2-0.1,36.3c0,1.4-0.4,2.8,0.7,4c0,0,0,0,0,0c0,0,0,0,0,0c0,0,0.1-0.2,0.1-0.2c0-13.3,0-26.7,0-40 c0-1.2-0.5-2.6,0.9-3.5c0,0,0,0,0,0c6.7,0,13.4,0,20.2,0c1.3,0,2.2,0,3.4,1.1" class="st46"/><path d="M256.7,167c3.1-0.1,5.1-2.7,7.6-4.1c4.9-2.7,10-5.1,14.5-8.5c0.2-0.2,0.5-0.4,0.7-0.6 c-2.9-7.2-8.3-12.1-14.7-15.8c-13.4-7.8-28.4-10.9-43.3-14.2c-0.4,0.1-0.8,0.2-1,0.4c-1,0.7-0.7,2.1-0.7,3.2c0,7.2,0,14.4,0,21.5 c0,0.3,0,0.6,0,0.8l0,0v0c4.9,1.3,9.8,2.5,14.7,4c8.2,2.6,16.7,4.8,21.3,13.3C256.1,167,256.4,167,256.7,167z" class="st47"/><path d="M219.8,69.9c0,4.2-0.1,8.4,0,12.6c0,1-0.1,1.8-0.5,2.6c-0.2,0.4-0.5,0.8-1,1.1c0,0,0,0,0,0 c11.4-1.7,21.9,1.5,32.1,6.2c0.2-0.1,0.5-0.3,0.7-0.4c7.6-4.3,15.1-8.5,22.7-12.8c0.2-0.1,0.5-0.3,0.7-0.4c0,0,0,0,0,0 c-1.5-2.1-3.7-3.4-5.9-4.6c-9.1-5.2-18.7-9.1-29.1-10.6c-8.7-1.3-17.4-2.5-26.1-0.3c1.6,0.1,2.7,0.2,3.6,0.4 C219.8,63.9,219.8,65.1,219.8,69.9z" class="st48"/><path d="M351.6,140.6c15.6-9,31.1-18,46.7-27.1c1.8-1.1,4.2-1.4,5.3-3.5c0,0,0,0,0,0c-0.2,0-0.4,0-0.7,0 c-8.9,0-17.9,0-26.8,0c-2.5,2.9-4.9,5.8-7.4,8.8c-2.5-3-4.8-5.9-7.2-8.8c0,0,0,0,0,0c-9.1,0-18.3,0-27.4,0c-1.3,0-2.8-0.5-4,0.7 c6.3,7.8,12.5,15.6,18.9,23.3c1.7,2.1,3.1,4,1,6.5v0C350.5,141.3,351.1,140.9,351.6,140.6z" class="st49"/><path d="M334.1,110c9.1,0,18.3,0,27.4,0c0,0,0,0,0,0c-9.1-12.7-18.7-25.1-28.3-37.4c-4,3.5-9,5.3-13.4,8.3 c-3,2-6.3,3.6-9.5,5.4c6.6,8.2,13.2,16.3,19.8,24.5c0,0,0,0,0,0s0,0,0,0C331.2,109.5,332.7,110,334.1,110z" class="st50"/><path d="M341.6,150.7c-4.7,5.7-9.6,11.2-14.1,17c-5.3,6.8-11.2,13.1-15.9,20.4c9,0,18,0,27,0.1c1.3,0,2.8-0.5,3.9,0.9 h0c7.1-8.4,13.6-17.3,20.2-26.1c0,0,0,0,0,0c-4.9-1.2-8.5-4.8-12.9-7C347,154.4,343.5,153.7,341.6,150.7z" class="st51"/><path d="M198.2,97.9c0.8,0.6,1.3,0.5,1.7,0.2c0.6-0.5,0.9-1.5,1.5-1.7c0,0,0,0,0,0c3.9-6.3,9.7-9.4,16.9-10.2 c0,0,0,0,0,0c0.4-0.3,0.8-0.7,1-1.1c0.4-0.7,0.5-1.6,0.5-2.6c-0.1-4.2,0-8.4,0-12.6c0-4.8,0-6-2.6-6.4c-0.9-0.2-2-0.2-3.6-0.4 c-1.7,0.3-3.5,0.6-5.2,1c-12.8,3.2-23.3,9.7-30,21.5c0.2,0.2,0.4,0.3,0.7,0.5C184.9,90.8,192.1,93.6,198.2,97.9z" class="st52"/><path d="M85.1,131.3c-4-5.9-8.2-11.7-13-16.9c0.9,2.4-1.1,3.3-2.4,4c-5.6,3.1-11.3,6-16.6,9.6 c-0.5,0.3-1.2,0.2-1.8,0.3c11,14.3,22,28.5,33,42.8c0-12.2,0-24.5-0.1-36.7C84.2,133.4,84,132.1,85.1,131.3z" class="st53"/><path d="M171,10.5c-4.3-1.6-4.4,2.9-5.3,5.3c-2.6,7.2-4.9,14.5-7.2,21.7c-0.3,1-0.8,1.8-1.9,2.2 c-3.1-8.9-6.2-17.7-9.3-26.6c-0.6-1.7-1.3-3-3.4-3c-2,0-3,1.2-3.6,2.8c-0.4,1.1-0.7,2.2-1.1,3.3c-2.7,7.9-5.5,15.8-8.5,24.7 c-3.2-9.2-6-17.3-8.9-25.4c-0.3-0.8-0.6-1.7-0.8-2.5c-0.7-2.2-2.3-3.2-4.4-2.5c-2.4,0.8-2.1,2.8-1.4,4.8c3.7,10.3,7.4,20.6,11,30.9 c0.8,2.4,1.5,4.8,4.5,4.8c3.1,0,3.2-2.8,4-4.9c2.9-8.2,5.8-16.4,8.8-25.1c1.8,2.9,2.5,5.6,3.4,8.2c2.2,6.2,4.3,12.5,6.5,18.7 c0.6,1.7,1.5,3.3,3.8,3.2c2.3-0.1,2.9-1.9,3.5-3.5c3.7-9.9,7.3-19.8,10.8-29.7C172.3,15.3,175,12,171,10.5z" class="st43"/><path d="M134.8,188.9c2.9,0,4-0.7,3.9-3.8c-0.2-9-0.1-17.9-0.1-26.9c0-0.2,0-0.4,0-0.5c0,0,0,0,0,0 c-0.9,0.4-1.9,0.7-2.8,1.2c-10.2,6-20.4,12-30.7,17.8c-3.8,2.1-8.1,3.5-11.1,6.9c1.5,1.6,2.2,3.9,4.1,5.2 C110.3,188.8,122.6,188.8,134.8,188.9z" class="st54"/><path d="M275.1,188.9c1.1,0,2.5-0.5,3.3,0.5c0.2,0.2,0.3,0.6,0.4,1.1c5.6-12.1,6.1-24.3,0.8-36.7c0,0,0,0,0,0 c0,0,0,0,0,0c-0.2,0.2-0.5,0.4-0.7,0.6c-4.5,3.5-9.6,5.8-14.5,8.5c-2.5,1.4-4.5,3.9-7.6,4.1c-0.3,0-0.7,0-1,0 c2.6,9.3-0.1,16.1-8.6,21.8c0.5,0,1,0,1.5,0C257.5,188.8,266.3,188.8,275.1,188.9z" class="st55"/><path d="M405.9,76.2c0,9.7,0,19.5,0,29.2c0,1.3-0.6,2.8,1,3.8c0,0,0,0,0,0c5.7-4.8,9.6-11.1,14.2-16.7 c3.5-4.3,7.6-8.2,9.4-13.7c1.7-5.4-1.2-12.1-6.4-14.2c-7.5-3.2-14.9-0.2-19,7.7c0,0,0,0,0,0C406.3,73.4,405.9,74.9,405.9,76.2z" class="st56"/><path d="M219.8,148.8c0-7.2,0-14.4,0-21.5c0-1.1-0.4-2.5,0.7-3.2c0.3-0.2,0.6-0.3,1-0.4c-5.4-2.6-11.3-4-16.3-7.6 c0,0,0,0,0,0c0.2,0.4,0.4,0.8,0.5,1.2c0.1,0.6,0.1,1.1-0.6,1.4c-7.7,3.7-14.5,9.1-22.4,12.3c-0.3,0.1-0.6,0.2-0.9,0.4c0,0,0,0,0,0 c1.8,1.7,3.4,3.7,5.5,5.2c9.8,6.9,21,10.5,32.5,13.1l0,0C219.8,149.4,219.8,149.1,219.8,148.8z" class="st57"/><path d="M139.2,157.6c-0.2,0-0.4,0-0.6,0.1c0,0,0,0,0,0c0,0.2,0,0.4,0,0.5c0,9-0.1,17.9,0.1,26.9 c0.1,3.1-1,3.8-3.9,3.8c-12.2-0.1-24.4-0.1-36.6-0.1c3.9,5.1,7.7,10.2,11.6,15.3c5.9,2.7,11.5,6,16.7,10h0 c7.2,0.2,12.7-4.4,12.8-11.6C139.4,187.6,139.2,172.6,139.2,157.6L139.2,157.6C139.2,157.6,139.2,157.6,139.2,157.6z" class="st58"/><path d="M33.6,110.8C33.6,110.8,33.6,110.8,33.6,110.8c0,0,0,0.1,0,0.1c0,8.1,0,16.1,0,24.2c0,1.3,0.5,2.8-0.7,3.9 l0,0c0,6.9,0,13.9,0.1,20.8c0,0,0,0,0,0c0,0,0,0,0,0c0,8.4-0.2,16.8,0,25.2c0.1,3.1-0.9,3.9-3.7,3.8c-5.4-0.2-10.8-0.2-16.2,0 c-2.5,0.1-3.3-0.8-3.3-3.5c0.1-9.4,0.1-18.9,0-28.3c0-1.2,0.3-2.5-0.6-3.5c0,0,0-0.1-0.1-0.1c0,0,0,0,0,0c0,0-0.1,0.2-0.1,0.2 c0,0,0,0,0,0c0,2.4,0,4.9,0,7.3c-0.3,9.8,0.3,19.6-0.4,29.4c-0.4,5.7-1.1,11.5,1.8,17.1c2.8,5.4,7.4,7.9,14.2,6.6 c4.5-0.9,8.9-6.4,9-11.4c0.3-15.4-0.1-30.8,0.6-46.3c0.6-14.1,0.2-28.3,0.1-42.5c0-1.4,0.4-2.8-0.6-4c0,0,0,0,0,0 C33.6,110.2,33.6,110.5,33.6,110.8z" class="st59"/><path d="M338.6,188.1c-9-0.1-18,0-27-0.1c-3.2,2.8-5.9,6.1-7.1,10.1c-1.3,4.4-1.1,8.9,2.2,12.6 c4.5,5,13.1,5.2,18.3,0.7c2.4-2.1,4.2-4.7,6.1-7.2c3.8-5.1,7.6-10.1,11.4-15.1C341.4,187.7,339.9,188.1,338.6,188.1z" class="st60"/><path d="M249.1,10.9c-10,4.5-15,15.4-11.6,26.5c2.9,9.2,11,15.3,22.7,13.5c4-0.6,7.7-2.4,10.5-5.7 c1.2-1.4,1.1-2.9-0.1-4.1c-1.3-1.4-2.5-0.6-3.6,0.5c-2,2.1-4.7,2.9-7.4,3.7c-6.9,1.9-14.2-2.2-16-9.1c-0.6-2.4-0.4-3.6,2.5-3.5 c3.8,0.2,7.7,0,11.5,0c4,0,7.9,0,11.9,0c3,0,4.3-1.4,4.2-4.5c-0.2-4.5-2-8.4-4.5-12C265.2,10.6,255.3,8.1,249.1,10.9z M264.9,28 c-3.3-0.1-6.6,0-9.9,0c-3.3,0-6.6,0-9.9,0c-1.5,0-2.5-0.3-2.2-2.1c0.9-5.4,6.9-10.8,12.2-10.9c5.8-0.1,10.5,4.1,11.9,10.3 C267.4,27.4,267,28.1,264.9,28z" class="st43"/><path d="M207.6,24.7c-0.1-7-3.4-12.2-9.9-13.8c-5.9-1.4-12.1-1.7-17.9,1.1c-1.5,0.7-3.1,1.4-2.4,3.6 c0.8,2.4,2.7,1.9,4.4,1.4c1.8-0.5,3.6-1.4,5.5-1.6c7.6-1.2,13.5,2.5,14.6,8.8c0.4,2.4-0.2,2.9-2.5,2.4c-3.9-0.8-7.8-1.1-11.8-0.9 c-7.1,0.3-12.8,3.6-14.1,8.5c-2.4,8.6,1.4,14.3,10.5,16.5c6.7,1.6,12.7-0.8,17.9-5.4c0.7,2.4-0.6,5.9,3.3,5.4 c3.3-0.4,2.5-3.3,2.5-5.5C207.6,38.5,207.7,31.6,207.6,24.7z M201.2,39.3c-3.2,6-12.2,9.7-19,4.9c-2.2-1.6-3.6-3.9-3.3-6.5 c0.3-2.6,1.9-5,4.6-6.1c2.4-1,4.9-1.5,7.5-1.5c2,0.3,4,0.5,6.1,0.8C202.1,31.6,203.7,34.7,201.2,39.3z" class="st43"/><path d="M138.6,110.7C138.6,110.7,138.6,110.7,138.6,110.7c0.2,0,0.4-0.1,0.7-0.1c0.1-0.2,0.1-0.5,0-0.7 c-1.1-1.3-0.6-2.9-0.6-4.4c-0.1-8.7,0-17.5,0-26.6c-8.7,4.9-16.9,9.6-25.1,14.2v0c0,5.8,0,11.7,0,17.5 C121.8,110.7,130.1,110.7,138.6,110.7C138.5,110.7,138.6,110.7,138.6,110.7z" class="st58"/><path d="M228.9,192.9c0.1,0.1,0.1,0.1,0.2,0.2c3.2,3.3,7.6,4.4,11.2,6.8c4.7,3.1,9.6,5.9,14.5,8.7 c0.8,0.5,1.8,0.6,2.8,0.8c0.4,0.1,0.8,0.1,1.2,0.2c9-3.9,15.8-10.2,20-19.1c-0.1-0.5-0.2-0.8-0.4-1.1c-0.8-1-2.2-0.5-3.3-0.5 c-8.8-0.1-17.6-0.1-26.4-0.1c-0.5,0-1,0-1.5,0c-3.7,1.4-7.3,3.1-11.4,3.3C233.7,193.4,231.3,192.3,228.9,192.9z" class="st61"/><path d="M138.1,140.7c1.1-0.5,0.5-1.8,0.5-2.8c0-9.1,0-18.1,0-27.2c0,0,0,0,0,0c0,0-0.1,0-0.1,0 c-8.3,0-16.7-0.1-25-0.1c0,5.6,0,11.3,0,16.9c7.6,3.3,14.4,7.9,21.5,12.1C136,140.3,137,141.1,138.1,140.7z" class="st62"/><path d="M220.6,214.3c0,0.1,0,0.2,0,0.3c0,0.1,0,0.2,0,0.3c0,0,0,0,0,0c0.3,0,0.7,0,1,0c5.1,0,10.2,0.1,15.3,0.1 c1.2,0,2.3,0,3.5,0c6.4-0.9,12.7-2,18.3-5.4v0c-0.4-0.1-0.8-0.2-1.2-0.2c-1-0.2-2-0.3-2.8-0.8c-4.9-2.8-9.8-5.6-14.5-8.7 c-3.6-2.4-8-3.5-11.2-6.8c-0.1-0.1-0.1-0.1-0.2-0.2c2.4-0.6,4.8,0.5,6.9-0.8c-5.1-0.1-10.2-0.1-15.2-0.2c0,0.3,0,0.6,0,0.9 C220.6,200,220.6,207.1,220.6,214.3z" class="st63"/><path d="M138.6,105.5c0,1.5-0.5,3.1,0.6,4.4c0-11.6,0.2-23.2,0-34.7c-0.1-6.6-6.3-12-13-11.9 c-7,0.1-12.8,5.6-12.9,12.3c-0.1,5.9,0.1,11.7,0.1,17.6c0,0,0,0,0,0c8.2-4.7,16.5-9.3,25.1-14.2C138.6,88,138.6,96.8,138.6,105.5z" class="st64"/><path d="M215,191.7c0.3-0.2,0.6-0.4,1-0.6c0,0,0,0,0,0c-2.8-1.1-5.5-2.4-8.5-2.9c-0.2,0.2-0.5,0.3-0.8,0.4 c-1,0.4-2.2,0.1-3.3,0.1c-11.3,0-22.6,0-33.9,0c-0.3,0-0.6,0-0.8,0c0,0,0,0,0,0c-0.1,1.7,0.5,3.2,1.6,4.6 c5.3,6.3,12.2,10.1,19.6,13.1c0.2-0.1,0.4-0.3,0.7-0.4C198.7,201.3,206.9,196.5,215,191.7z" class="st58"/><path d="M174.4,111c0.6-0.4,1.5-0.4,2.3-0.4c7.9,0,15.7,0.1,23.6,0.1c0.3,0,0.5,0,0.8,0c0,0,0,0,0,0 c-1.9-4.8-1.7-9.6,0.3-14.4c0,0,0,0,0,0c0,0,0,0,0,0c0,0,0,0,0,0c-0.7,0.3-1,1.3-1.5,1.7c-0.4,0.3-0.9,0.4-1.7-0.2 c-6.1-4.3-13.3-7.1-19.2-11.8c-0.2-0.2-0.4-0.3-0.7-0.5c-4.5,8.3-6.1,17.2-4.8,26.5C173.8,111.5,174,111.2,174.4,111z" class="st58"/><path d="M406,188.2C406,188.2,405.9,188.2,406,188.2C405.9,188.1,405.9,188.2,406,188.2c-0.3,0-0.6,0.1-0.8,0.1 c0,0.1,0,0.2,0,0.2c0,0.1,0,0.2,0,0.2c0,0,0,0,0,0c0,0,0,0,0,0c0,5.2,0,10.3,0,15.5c0,0,0,0,0,0c0,0,0,0,0,0 c1.4,2.9,3.3,5.4,5.8,7.4c4.3,3.5,9.3,3.8,14.3,2c4.3-1.6,7.1-4.7,7.4-9.6c-6.5-3.9-13-7.7-19.5-11.6 C410.7,191,408.3,189.6,406,188.2z" class="st65"/><path d="M205.1,118.7c0.7-0.4,0.8-0.9,0.6-1.4c-0.1-0.4-0.3-0.8-0.5-1.2c0,0,0,0,0,0c-1.8-1.5-3-3.4-4.2-5.4 c0,0,0,0,0,0c-0.3,0-0.5,0-0.8,0c-7.9,0-15.7-0.1-23.6-0.1c-0.8,0-1.7-0.1-2.3,0.4c-0.3,0.2-0.6,0.6-0.8,1.1 c0.9,7.2,3.2,13.8,8.2,19.3c0,0,0,0,0,0c0.3-0.1,0.6-0.2,0.9-0.4C190.7,127.9,197.4,122.5,205.1,118.7z" class="st62"/><path d="M220.6,214.8c0-0.1,0-0.2,0-0.3c0-0.1,0-0.2,0-0.3c0-7.2-0.1-14.3-0.1-21.5c0-0.3,0-0.6,0-0.9 c-1.4-0.8-3-0.9-4.6-0.8c0,0,0,0,0,0c-0.3,0.2-0.6,0.4-1,0.6c-8.2,4.8-16.3,9.6-24.5,14.4c-0.2,0.1-0.4,0.3-0.7,0.4 c0.3,0.4,0.6,0.9,1,1.1c9.3,3.5,18.7,7,28.8,7.4C220,215,220.3,214.9,220.6,214.8C220.6,214.8,220.6,214.8,220.6,214.8z" class="st66"/><path d="M69.7,118.5c1.3-0.7,3.3-1.7,2.4-4c-0.3-1.6-1.7-2.4-2.4-3.7c0,0,0,0,0,0c-1.5-0.2-3-0.6-4.5-0.7 c-8.1-0.1-16.3,0-24.4,0c-1.1,0-2.3-0.4-3.2,0.6c0,0,0,0,0,0c4.6,5.9,9.2,11.8,13.7,17.7c0.6-0.1,1.4,0,1.8-0.3 C58.4,124.5,64.1,121.6,69.7,118.5z" class="st67"/><path d="M333.2,72.6c-1.5-1.9-2.8-4-4.4-5.7c-4.8-5.1-15.5-4.5-19.8,1.1c-4.5,5.8-4.1,11.5,1.3,18.3 c3.2-1.8,6.5-3.3,9.5-5.4C324.2,77.9,329.2,76.1,333.2,72.6z" class="st68"/><path d="M402.7,107.8c1,0.6,2,0.7,2.3-0.1c0.1-0.2,0.1-0.5,0.1-0.8c-0.2-10,0.7-20-0.2-29.9c-0.1-1.5-0.3-2.9-0.5-4.4 c-1.4,1.8-2.9,3.6-4.3,5.5c-5.1,6.8-10.1,13.5-15.1,20.3c4.8,0.5,7.9,4.4,12.1,6.2C399,105.5,400.8,106.7,402.7,107.8z" class="st69"/><path d="M237.2,12.4c-0.4-1.6-1.4-2.3-3-2.2c-2.1,0-4,0.3-5.8,1.4c-2.7,1.6-5.1,3.6-7.6,5.8c0-1.3,0-2.5,0-3.8 c-0.1-2-0.7-3.7-3-3.6c-2.3,0-3,1.6-3,3.7c0,11.2,0,22.4,0,33.6c0,1.9,0.5,3.7,3,3.6c2.3-0.1,2.9-1.8,3-3.7c0.1-3.4,0-6.9,0-10.3 c0-12.7,2.3-16.1,14.1-20.7c0.2-0.1,0.5-0.1,0.7-0.2C236.7,15.1,237.5,14,237.2,12.4z" class="st70"/><path d="M203.4,188.8c1.1,0,2.2,0.3,3.3-0.1c0.3-0.1,0.5-0.2,0.8-0.4c-6.4-2.9-12.5-6.2-18-10.6 c-4-3.2-10.8-4.2-14.9-1.4c-3.7,2.4-7.1,6-5.8,12.6h0c0.3,0,0.6,0,0.8,0C180.9,188.9,192.2,188.9,203.4,188.8z" class="st71"/><path d="M15.3,70.4c0,0.2,0,0.4,0,0.6c1.7,0.2,3.1,1.1,4.5,2c10.4,5.9,20.8,11.9,31.3,17.8c0.9,0.5,1.9,1.9,3.4,0.8 C49.8,84.2,44,77.8,38.8,71c-2.9-3.8-6.3-7.5-11.9-7.1c-3.6,2.5-7.1,5.2-11.6,6.2C15.3,70.2,15.3,70.3,15.3,70.4z" class="st72"/><path d="M251.2,91.8c-0.2,0.1-0.5,0.3-0.7,0.4c1.8,1.8,4.4,2.4,6.5,3.8c5.8,4,12.4,3.7,17-0.8 c4.7-4.6,4.9-10.5,0.7-16.6c0,0,0,0,0,0c-0.2,0.1-0.5,0.3-0.7,0.4C266.3,83.3,258.8,87.6,251.2,91.8z" class="st73"/><path d="M405.9,168.3c0,6.6,0,13.2,0,19.9l0,0c0,0,0.1,0,0.1,0c0,0,0,0,0.1,0c0.1,0,0.3,0,0.4,0c5,0,10,0,14.9-0.1 c1.2,0,2.6,0.4,3.6-0.6c0,0,0,0,0,0c-5.8-8-12-15.6-18.4-23.1c0,0,0,0,0,0C405.4,165.5,405.9,167,405.9,168.3z" class="st74"/><path d="M403.6,110C403.6,110,403.6,110,403.6,110c1.1,0,2.2-0.1,2.3,1.4c0,0,0,0,0,0c1-0.4,1-1.3,1-2.1c0,0,0,0,0,0 c-1.6-0.9-1-2.5-1-3.8c0-9.7,0-19.5,0-29.2c0-1.3,0.4-2.8-0.8-3.9c0,0,0,0,0,0c-0.3,0-0.5,0.1-0.6,0.3c0,0,0,0,0,0 c0.2,1.5,0.4,2.9,0.5,4.4c0.8,10-0.1,19.9,0.2,29.9c0,0.3,0,0.6-0.1,0.8c-0.3,0.9-1.3,0.7-2.3,0.1c-1.9-1.1-3.7-2.4-5.6-3.2 c-4.2-1.8-7.3-5.7-12.1-6.2c-3.3,3.6-6.2,7.5-8.8,11.6c8.9,0,17.9,0,26.8,0C403.2,110,403.4,110,403.6,110z" class="st75"/><path d="M425.1,187.4c-1,1-2.4,0.6-3.6,0.6c-5,0.1-10,0-14.9,0.1c-0.1,0-0.3,0-0.4,0c0,0,0,0-0.1,0c0,0-0.1,0-0.1,0 c0,0,0,0,0,0c0,0,0,0,0.1,0c2.4,1.4,4.7,2.9,7.1,4.3c6.5,3.9,13,7.7,19.5,11.6C433.9,196.8,429.4,192.1,425.1,187.4 C425.1,187.4,425.1,187.4,425.1,187.4z" class="st76"/><path d="M405.2,188.7C405.2,188.7,405.2,188.7,405.2,188.7c0-0.1,0-0.2,0-0.2c0-0.1,0-0.2,0-0.2 c-7.2-5-15.1-8.7-22.7-13.2c0,0,0,0,0,0c4.5,5.9,9,11.8,13.5,17.7c3.4-0.1,5.6-2.9,8.7-3.9C404.8,188.8,405,188.8,405.2,188.7z" class="st77"/><path d="M405.2,188.7C405.2,188.7,405.2,188.7,405.2,188.7c-0.2,0-0.4,0.1-0.5,0.2c-3,1-5.2,3.9-8.7,3.9 c3.1,3.8,5.5,8.1,9.2,11.4c0,0,0,0,0,0C405.1,199.1,405.1,193.9,405.2,188.7z" class="st78"/><path d="M15.2,70.1c0,0,0.1,0,0.1,0.1v0c4.4-1,7.9-3.7,11.6-6.2c-5.3-1.2-10.1-0.3-14,3.8 C13,69.2,14.2,69.6,15.2,70.1z" class="st79"/><path d="M112.7,207.9c3.5,4.4,7.8,7,13.6,6.2c0,0,0,0,0,0c-5.2-4-10.7-7.3-16.7-10 C110.7,205.4,111.7,206.7,112.7,207.9z" class="st80"/><path d="M278.8,9.7c-2.8,0-4.9,2.1-4.9,5.1c-0.1,3.1,1.8,5.3,4.5,5.4c3,0.1,5.4-2.2,5.5-5.1 C284,12.1,281.8,9.7,278.8,9.7z M278.6,18.7c-2.1,0-3.6-1.4-3.6-3.6c0-2.4,1.6-3.9,3.8-3.8c2.1,0.1,3.9,1.3,3.7,3.9 C282.6,17.8,280.7,18.7,278.6,18.7z" class="st81"/><path d="M16,71.3c0-0.2-0.7-0.7-0.7-0.9c0-0.1,0-0.1,0-0.2v0c0,0-0.1,0-0.1-0.1c-1-0.5-2.2-0.9-2.3-2.3 c-2,1.2-2.1,4.3-2.6,6.4c0,0,4-0.3,4-0.3C16.6,74.6,14.3,72.1,16,71.3z" class="st46"/><path d="M9.2,113.5c0,13.3,0,26.7,0,40c0,0,0,0,0,0c0,0,0,0.1,0.1,0.1c1,1,0.7,2.3,0.7,3.5c0,9.4,0.1,18.9,0,28.3 c0,2.7,0.8,3.6,3.5,3.5c5.7-0.2,11.5-0.2,17.2,0c2.9,0.1,4-0.7,3.9-3.8c-0.2-8.4,0-16.8,0-25.2c0,0,0,0,0,0 c-0.4-0.2-0.8-0.3-1.1-0.5c-6.1-2.7-11.4-6.6-17.3-9.6c-3.7,2-5.2,2.8-5.8,1.6c-0.4-0.8-0.3-2.5-0.3-5.4h0c-0.2-12-0.4-24,0.1-36" class="st82"/><path d="M9.9,146c0.1,0.1,0.2,0.1,0.3,0.2c0.3,0.1,0.5,0.3,0.8,0.4c1.7,0.9,3.4,1.7,5.1,2.6c3.1-1.7,6.3-3.1,9.1-5.1 c2.7-1.8,5.4-3.3,8.4-4.6c0.3-0.1,0.6-0.3,0.9-0.4c0,0,0,0,0,0c0,0,0,0,0,0l0,0c0-9.1,0.1-18.2,0.1-27.2c0-0.2,0-0.5,0-0.7 c0-0.1,0-0.3,0-0.4c-1.2-1.1-2.6-0.6-4-0.7c-6.8-0.1-13.6,0-20.5,0c0,0,0,0,0,0C9.5,122,9.7,134,9.9,146z" class="st83"/><path d="M34.4,139.1c-0.3,0.1-0.6,0.3-0.9,0.4c-2.9,1.3-5.7,2.8-8.4,4.6c-2.9,1.9-6.1,3.4-9.1,5.1c0,0.1,0,0.1,0,0.2 c0,0,0,0.1,0,0.1c0,0.1,0,0.2,0,0.3c0,0,0,0,0,0c5.9,3,11.3,7,17.3,9.6c0.4,0.2,0.8,0.3,1.1,0.5c0,0,0,0,0,0 C34.5,153,34.4,146,34.4,139.1C34.4,139.1,34.4,139.1,34.4,139.1C34.4,139.1,34.4,139.1,34.4,139.1z" class="st84"/><path d="M16,149.4c0,0,0-0.1,0-0.1c0-0.1,0-0.1,0-0.2c-1.7-0.9-3.4-1.7-5.1-2.6c-0.3-0.1-0.5-0.3-0.8-0.4 c-0.1-0.1-0.2-0.1-0.3-0.2h0c-0.1,2.9-0.1,4.6,0.3,5.4c0.6,1.2,2.1,0.4,5.8-1.6c0,0,0,0,0,0C16,149.7,16,149.5,16,149.4z" class="st85"/><path d="M279,12.7c-1.5-0.1-2,0.6-2,2c0,1.1-0.4,2.6,1.7,1.6c2.1,1.6,1.4-0.5,1.6-1.3C280.8,13.8,280.7,12.8,279,12.7 z" class="st86"/></g></svg>