<svg xmlns="http://www.w3.org/2000/svg" xmlns:xlink="http://www.w3.org/1999/xlink" id="Layer_1" x="0" y="0" enable-background="new 0 0 303 420" version="1.1" viewBox="0 0 303 420" xml:space="preserve"><style type="text/css">.st54{fill:#39ace2}</style><path d="M90.1,61.1l-77,19.7v155.1l77-20.2 M114.1,78.5v131.1l77.5-19.7V58.9 M114.1,334.6l77.5-19.7V214l-77.5,19.7 M90.1,239.6l-77,19.7v77.5l77-19.7 M215.7,28.8v155.1l77-19.7V9.2 M215.7,284.9l77-19.7v-77.5l-77,19.7" class="st54"/><g><path d="M37,406.4l-5.3-21.2h-0.1l-5.2,21.2h-6.9l-8.2-31.1h6.8l4.9,21.2h0.1l5.4-21.2h6.4l5.3,21.4h0.1l5.1-21.4h6.7l-8.4,31.1H37 z"/><path d="M70.8,375.3l11.6,31.1h-7.1l-2.4-6.9H61.4l-2.4,6.9h-6.9l11.8-31.1H70.8z M71.2,394.4l-3.9-11.4h-0.1l-4.1,11.4H71.2z"/><path d="M91,406.4l-10.1-31.1h7l6.9,21.9H95l7-21.9h7.1l-10.3,31.1H91z"/><path d="M136.1,375.3v5.8h-16.4v6.7h15.1v5.3h-15.1v7.6h16.8v5.8h-23.6v-31.1H136.1z"/><path d="M164,375.3v5.8h-15v7.2h13v5.3h-13v12.9h-6.8v-31.1H164z"/><path d="M185.8,375.3c1.4,0,2.7,0.2,3.8,0.7c1.1,0.5,2.1,1.1,2.9,1.9c0.8,0.8,1.4,1.7,1.8,2.7c0.4,1,0.6,2.1,0.6,3.3 c0,1.8-0.4,3.4-1.2,4.7c-0.8,1.3-2,2.4-3.8,3.1v0.1c0.8,0.2,1.5,0.6,2.1,1.1c0.6,0.5,1,1,1.4,1.7c0.3,0.7,0.6,1.4,0.8,2.2 c0.2,0.8,0.3,1.6,0.3,2.4c0,0.5,0.1,1.1,0.1,1.7c0,0.7,0.1,1.4,0.2,2c0.1,0.7,0.2,1.4,0.3,2c0.2,0.6,0.4,1.2,0.7,1.6H189 c-0.4-1-0.6-2.2-0.7-3.5c-0.1-1.4-0.2-2.7-0.4-3.9c-0.2-1.6-0.7-2.8-1.5-3.6c-0.8-0.8-2-1.1-3.7-1.1h-6.8v12.2h-6.8v-31.1H185.8z M183.4,389.4c1.6,0,2.7-0.3,3.5-1c0.8-0.7,1.2-1.8,1.2-3.4c0-1.5-0.4-2.6-1.2-3.3c-0.8-0.7-2-1-3.5-1h-7.5v8.8H183.4z"/><path d="M201.3,384.5c0.7-2,1.7-3.7,3-5.2c1.3-1.5,2.9-2.6,4.8-3.5c1.9-0.8,4-1.3,6.4-1.3c2.4,0,4.6,0.4,6.4,1.3 c1.9,0.8,3.5,2,4.8,3.5s2.3,3.2,3,5.2s1,4.1,1,6.5c0,2.3-0.3,4.4-1,6.3s-1.7,3.7-3,5.1c-1.3,1.5-2.9,2.6-4.8,3.4 c-1.9,0.8-4,1.2-6.4,1.2c-2.4,0-4.5-0.4-6.4-1.2c-1.9-0.8-3.5-2-4.8-3.4c-1.3-1.5-2.3-3.2-3-5.1c-0.7-2-1-4.1-1-6.3 C200.3,388.6,200.6,386.5,201.3,384.5z M207.6,394.8c0.3,1.2,0.8,2.3,1.5,3.3c0.7,1,1.5,1.8,2.6,2.4c1.1,0.6,2.4,0.9,3.9,0.9 c1.5,0,2.8-0.3,3.9-0.9c1.1-0.6,1.9-1.4,2.6-2.4c0.7-1,1.2-2.1,1.5-3.3c0.3-1.2,0.5-2.5,0.5-3.8c0-1.4-0.2-2.7-0.5-4 c-0.3-1.3-0.8-2.4-1.5-3.4c-0.7-1-1.5-1.8-2.6-2.4c-1.1-0.6-2.4-0.9-3.9-0.9c-1.5,0-2.8,0.3-3.9,0.9c-1.1,0.6-1.9,1.4-2.6,2.4 c-0.7,1-1.2,2.1-1.5,3.4c-0.3,1.3-0.5,2.6-0.5,4C207.1,392.3,207.2,393.5,207.6,394.8z"/><path d="M243.4,375.3l13,20.9h0.1v-20.9h6.4v31.1H256l-12.9-20.8H243v20.8h-6.4v-31.1H243.4z"/><path d="M267.5,381v-5.8H293v5.8h-9.3v25.4h-6.8V381H267.5z"/></g></svg>