<svg xmlns="http://www.w3.org/2000/svg" xmlns:xlink="http://www.w3.org/1999/xlink" version="1.1" viewBox="-3.42 -0.32 177.84 16.64"><g id="Page-1" fill="none" fill-rule="evenodd" stroke="none" stroke-width="1"><g id="Mobile-Portrait-Navbar_Open-Copy-2" fill="#5000BE" transform="translate(-16.000000, -25.000000)"><g id="nav_mobile"><g id="logo" transform="translate(16.000000, 25.000000)"><polygon id="Fill-16" points="155.279 15.981 157.819 15.981 159.073 13.465 160.132 15.981 162.394 15.981 160.365 10.91 163.14 5.283 165.914 10.91 163.884 15.981 166.147 15.981 167.206 13.465 168.46 15.981 171 15.981 163.14 .144"/><polygon id="Fill-15" points="148.742 15.981 151.347 15.981 151.347 .144 148.742 .144"/><polygon id="Fill-14" points="136.328 8.062 128.467 .144 128.467 15.981 131.072 15.981 131.072 6.511 136.328 11.804 141.561 6.511 141.561 15.981 144.211 15.981 144.211 .144"/><polygon id="Fill-13" points="121.309 .144 121.309 6.738 113.448 6.738 113.448 .144 110.843 .144 110.843 15.981 113.448 15.981 113.448 9.386 121.309 9.386 121.309 15.981 123.937 15.981 123.937 .144"/><polygon id="Fill-12" points="93.795 .144 93.795 2.79 99.05 2.79 99.05 15.981 101.678 15.981 101.678 2.79 106.911 2.79 106.911 .144"/><polygon id="Fill-10" points="87.258 15.981 89.863 15.981 89.863 .144 87.258 .144"/><path id="Fill-8" d="M72.239349,8.03926531 L72.239349,2.79024912 L77.494464,2.79024912 C78.2045415,2.79024912 78.816009,3.04952006 79.329864,3.56562139 C79.8430065,4.0840197 80.0997915,4.69975229 80.0997915,5.41439831 C80.0997915,6.14526671 79.842864,6.76918227 79.329864,7.28657565 C78.816009,7.80382548 78.2045415,8.06223505 77.494464,8.06223505 L72.239349,8.03926531 Z M69.6343065,0.143560873 L69.6343065,15.9809092 L72.239349,15.9809092 L72.239349,10.7097847 L76.678794,10.7097847 L79.7150415,15.9809092 L82.727349,15.9809092 L79.488039,10.299057 C80.4244065,9.91847713 81.1944765,9.28709641 81.798819,8.40434061 C82.4176965,7.50722871 82.727349,6.5107727 82.727349,5.41439831 C82.727349,3.96960169 82.214349,2.73009711 81.1873515,1.6947361 C80.1596415,0.660092892 78.929724,0.143560873 77.4943215,0.143560873 L69.6343065,0.143560873 L69.6343065,0.143560873 Z"/><path id="Fill-5" d="M54.1036162,11.8041923 C53.0915812,10.7553365 52.5859912,9.5079361 52.5859912,8.06227811 C52.5859912,6.61705081 53.0915812,5.37668487 54.1036162,4.3426159 C55.1458612,3.3079727 56.3837587,2.79029219 57.8190187,2.79029219 C59.2535662,2.79029219 60.4843387,3.3079727 61.5111937,4.3426159 C62.5381912,5.37668487 63.0516187,6.61705081 63.0516187,8.06227811 C63.0516187,9.5079361 62.5381912,10.7553365 61.5111937,11.8041923 C60.4843387,12.8240487 59.2535662,13.3334027 57.8190187,13.3334027 C56.3837587,13.3334027 55.1458612,12.8240487 54.1036162,11.8041923 M52.2685012,2.47086925 C50.7282187,4.0230494 49.9581487,5.88690021 49.9581487,8.06227811 C49.9581487,10.2527299 50.7280762,12.1168678 52.2685012,13.6532563 C53.7935362,15.2044315 55.6440412,15.9809523 57.8190187,15.9809523 C59.9932837,15.9809523 61.8433612,15.2044315 63.3691087,13.6532563 C64.9240687,12.1316546 65.7019762,10.2680909 65.7019762,8.06227811 C65.7019762,5.88690021 64.9240687,4.0230494 63.3691087,2.47086925 C61.8433612,0.91825841 59.9932837,0.143603941 57.8190187,0.143603941 C55.6286512,0.143603941 53.7785737,0.91825841 52.2685012,2.47086925"/><path id="Fill-3" d="M33.9061365,2.47082618 C32.3657115,4.02300633 31.595784,5.88685714 31.595784,8.06223505 C31.595784,10.2526868 32.3657115,12.1169683 33.9061365,13.6533568 C35.4311715,15.2043885 37.281534,15.9809092 39.4562265,15.9809092 C40.1353815,15.9809092 40.792449,15.8980746 41.427144,15.7299648 C42.061269,15.5622857 42.657774,15.3231133 43.2165165,15.0111555 C43.7748315,14.6987671 44.2923915,14.3227811 44.768484,13.8813315 C45.244149,13.4400253 45.663099,12.9536411 46.0254765,12.4201689 L46.0254765,6.7609993 L39.4562265,6.7609993 L39.4562265,9.38586629 L43.3974915,9.38586629 L43.3974915,11.5533483 C42.899454,12.1169683 42.313779,12.5539676 41.642034,12.8652076 C40.9701465,13.1774525 40.241259,13.3335032 39.4562265,13.3335032 C38.0212515,13.3335032 36.783069,12.8241492 35.7412515,11.8042928 C34.7292165,10.7552935 34.223199,9.50789303 34.223199,8.06223505 C34.223199,6.61700774 34.7292165,5.37678536 35.7412515,4.34257284 C36.783069,3.30807319 38.0212515,2.79039268 39.4562265,2.79039268 C40.906164,2.79039268 42.1369365,3.30807319 43.1484015,4.34257284 L45.0291165,2.47082618 C44.3040765,1.74038846 43.4656065,1.16987755 42.5145615,0.759293455 C41.562804,0.348278677 40.543359,0.143704433 39.4562265,0.143704433 C37.281534,0.143704433 35.4311715,0.918215341 33.9061365,2.47082618 L33.9061365,2.47082618 Z"/><polygon id="Fill-2" points="19.055 .144 19.055 15.981 29.521 15.981 29.521 13.334 21.66 13.334 21.66 .144"/><path id="Fill-1" d="M7.86082725,0.143632653 L-4.27499999e-05,15.980981 L2.92263225,15.980981 L4.25913975,13.3335749 L11.4854573,13.3335749 L12.7995923,15.980981 L15.7214123,15.980981 L7.86082725,0.143632653 Z M7.86082725,6.05417734 L10.1713222,10.7097129 L5.55047475,10.7097129 L7.86082725,6.05417734 Z"/></g></g></g></g></svg>