<svg xmlns="http://www.w3.org/2000/svg" xmlns:xlink="http://www.w3.org/1999/xlink" id="Layer_1" x="0" y="0" enable-background="new 0 0 496.5 91.5" version="1.1" viewBox="-5.24 2.9 506.48 83.2" xml:space="preserve"><style type="text/css">.st400{fill:#0b3b4b}.st401{fill:#0c3b4b}.st402{fill:#0c3c4b}.st403{fill:#fe6699}</style><g><path d="M312.6,25.3c-8.4-5.2-17.4-3.7-25.1,4.4c0-1,0-1.5,0-2c0-4.4,0-4.3-4.5-4.5c-2.2-0.1-2.4,0.8-2.4,2.6 c0.1,17.7,0,35.5,0,53.2c0,5,0,4.9,5,4.9c1.5,0,1.8-0.5,1.8-1.8c-0.1-5.8,0-11.6,0-17.4c0-1.2,0-2.4,0-4c0.7,0.8,1.1,1.2,1.4,1.6 c8.3,8.9,22.1,7.9,28.9-2.3c4.4-6.6,4.8-14,3.3-21.6C319.9,33,317.4,28.3,312.6,25.3z M311.7,56.2c-5.9,9-18.3,7-23.8-0.4 c-0.5-0.7-0.4-1.4-0.4-2.2c0-5.5,0-11.1,0-16.6c0-1.4,0.5-2.4,1.4-3.3c4.3-4.3,9.3-6.3,15.3-4.7c5.8,1.5,8.6,5.8,9.9,11.3 c0.4,1.6,0.5,3.3,0.6,4.6C314.5,49.1,313.9,52.9,311.7,56.2z" class="st400"/><path d="M117.2,23.6c-8.3-3-15.3-0.6-21.4,6.3c0-6.6,0-12.8,0-18.9c0-4.3,0-4.1-4.3-4.3c-2.3-0.1-2.5,0.7-2.5,2.7 C89,27,89,44.6,89,62.3c0,5.4,0,5.3,5.4,5c1.1-0.1,1.5-0.3,1.4-1.4c-0.1-1.5,0-3.1,0-4.9c0.9,0.9,1.4,1.3,1.8,1.8 c7.9,8.3,21.6,7.3,28.1-2.1c4.6-6.5,5.2-13.9,3.7-21.5C128.1,32,124.4,26.2,117.2,23.6z M119.6,56.9c-6,8.5-18.4,6.1-23.4-0.9 c-0.5-0.7-0.4-1.4-0.4-2.2c0-2.9,0-5.7,0-8.6c0-2.4,0.2-4.7-0.1-7c-0.3-2.5,0.8-4.2,2.6-5.6c4.4-3.6,9.3-5.3,15-3.4 c5.5,1.8,8.2,6.1,9.2,11.6C123.6,46.5,123.1,52,119.6,56.9z" class="st400"/><path d="M476.8,23.3c-12.2-3.9-24,3.2-27.4,16.3c-2.5,9.5,1.5,20.6,9.3,25.3c8.9,5.4,21.2,4.4,28.6-2.3 c0.4-0.3,1-1,0.9-1.1c-0.9-1.3-1.7-2.8-2.8-3.8c-0.9-0.8-1.4,0.8-2.1,1.1c-1.3,0.7-2.4,1.5-3.7,2.1c-10.2,4.8-21.2-0.4-23.4-11 c-0.3-1.7-0.3-2.6,1.9-2.5c5.1,0.2,10.2,0.1,15.4,0.1c3.9,0,7.9,0,11.8,0c6.6,0,6.7,0,5.6-6.6C489.4,32.5,485.3,26.1,476.8,23.3z M482.9,42.6c-4.3-0.1-8.6,0-12.8,0c-4.1,0-8.2-0.1-12.3,0c-1.5,0-2-0.3-1.8-1.9c1.1-7.3,7.2-12.8,14.3-12.7 c7.6,0.1,13.3,5.4,14.2,13C484.6,42.4,484.2,42.6,482.9,42.6z" class="st400"/><path d="M266,29.8c2-2,3.9-4,6.2-6.4c-2,0-3.5,0.1-5,0c-2.6-0.3-4.3,0.7-6.1,2.5c-6.7,6.8-13.7,13.3-20.5,20 c0-11.4,0-23.2,0-34.9c0-4.2,0-4-4.2-4.2c-2.4-0.1-2.7,0.8-2.7,2.8c0.1,17.9,0,35.8,0,53.7c0,4.1,0,4,4,4.2 c2.3,0.1,3.1-0.5,2.8-2.8c-0.8-6.2-0.1-11.8,5.8-15.5c0.1,0,0.1-0.1,0.2-0.2c0.9-1.2,1.5-1,2.4,0.1c4.5,5.7,9,11.3,13.5,16.9 c0.6,0.7,1,1.5,2.1,1.5c2.4-0.1,4.8,0,7.3,0c-0.2-1.1-0.9-1.6-1.4-2.2c-5.4-6.7-10.7-13.3-16.3-19.9c-1.3-1.5-1.1-2.3,0.2-3.6 C258.4,37.7,262.2,33.8,266,29.8z" class="st400"/><path d="M167,24c-7.7-2.9-15.4-2.5-22.3,2.3c-4.9,3.4-4.9,2.4-0.7,7.7c5.7-4.8,9.6-6.2,15.5-5.6 c5,0.5,8.4,3.6,8.8,8.2c0.2,2.7,0,5.5,0,8.6c-3-2.8-6.1-4.4-9.8-5.3c-7-1.6-14.3,0.8-17.6,5.8c-3,4.7-3.3,9.7-0.9,14.6 c2.5,5.1,7,7.5,12.6,7.9c5.9,0.4,11.1-1.4,15.6-5.8c0.4,5,0.4,5,5.1,4.9c0.1,0,0.2,0,0.3,0c1.2,0.2,1.6-0.3,1.6-1.5 c-0.1-10.2,0-20.3-0.2-30.5C174.8,29.9,172,25.9,167,24z M162,62.4c-3.1,1.3-6.4,1.4-9.6,0.4c-4.3-1.3-6.8-4.6-6.9-8.8 c0-4.3,2.4-7.7,6.7-9c5-1.5,9.6-0.5,13.8,2.4c2.3,1.6,2.7,3.8,2.3,6.1C169.2,59.5,166,60.8,162,62.4z" class="st400"/><path d="M381.3,25c-6.9-4.2-18.2-3.3-25.2,2c-3.3,2.5-3.2,2.4-1,5.8c0.9,1.3,1.3,1.5,2.5,0.3 c3.9-3.8,8.7-5.1,14.1-4.6c4.6,0.4,7.9,3.1,8.7,7.1c0.6,3.1,0.3,6.2,0.3,9.8c-4.8-4.6-10.2-6.2-16.2-5.7c-5.3,0.5-9.8,2.8-12.1,7.8 c-2.4,5-2.1,10.1,1.1,14.8c3.5,5.2,11.1,7.4,18.1,5.5c3.4-0.9,6.2-2.7,8.9-5.1c0.7,5,0.7,5,5.6,4.7c1.1-0.1,1.4-0.4,1.4-1.4 c-0.1-10.3,0-20.7-0.2-31C387.2,30.6,385,27.2,381.3,25z M380.8,53.3c0,5.3-1.5,7.4-6,9c-3.2,1.1-6.4,1.5-9.6,0.6 c-4.6-1.2-7.2-4.7-7.2-9.1c0-4.5,2.9-8.1,7.5-9.1c3.6-0.8,7.2-0.4,10.5,1.2C379.3,47.5,381.8,49.7,380.8,53.3z" class="st400"/><path d="M437.4,34c-0.5-7.2-4.9-11.2-12.1-11.6c-6.7-0.4-12.2,2.3-17.2,7.2c0-0.9,0-1.4,0-1.8c0-4.5,0-4.3-4.4-4.5 c-2.1-0.1-2.4,0.7-2.4,2.5c0.1,12.3,0,24.5,0,36.8c0,4.6,0,4.5,4.6,4.6c2,0.1,2.3-0.6,2.3-2.4c-0.1-9.1,0-18.2-0.1-27.2 c0-2.1,0.6-3.5,2.1-4.8c2.6-2.1,5.4-3.7,8.7-4.3c6.7-1.2,11.5,2,11.9,8.1c0.1,1.2,0.1,2.4,0.1,3.5c0,7.3,0,14.6,0,21.9 c0,5.4,0,5.4,5.3,5.1c1.2,0,1.6-0.3,1.6-1.5C437.5,55.2,438.1,44.6,437.4,34z" class="st401"/><path d="M204.6,28.9c5.4-1.3,10.2-0.3,14,3.9c0.9,1,1.4,1.2,2.3,0.2c0.5-0.6,1.2-1.2,1.8-1.7c1.5-1,1.1-1.8,0.1-2.9 c-7.8-8.6-23.7-8-31.1,1.3c-6.4,7.9-7.2,19.4-2.1,28.4c6.1,10.6,22.2,13.8,31.4,6.1c3.6-3,3.5-3.1,0.2-6.3c-1.3-1.2-1.9-1-2.9,0.2 c-2.5,2.8-5.7,4.1-9.4,4.2c-9.1,0.2-15.5-6.8-15.5-17c0.1-1.9,0.2-3.9,0.7-5.7C195.8,34.2,199,30.3,204.6,28.9z" class="st400"/><path d="M339.4,37c0-8.6,0-17.1,0-25.7c0-4.6,0-4.5-4.5-4.6c-1.9-0.1-2.3,0.5-2.3,2.4c0.1,17.9,0,35.8,0,53.7 c0,4.6,0,4.5,4.6,4.6c2,0.1,2.3-0.5,2.3-2.4C339.4,55.6,339.4,46.3,339.4,37z" class="st402"/><path d="M40.5,15.1c-1-2.9-1.9-5.9-3-8.8c-0.5-1.4-3.2-2.3-4.9-1.4c-1.4,0.7-0.2,1.8,0.1,2.7 C39.2,27.3,45.9,47,52.4,66.7c0.6,1.9,1.4,3,3.5,2.4c2.5,0.6,2.6-0.5,1.9-2.5C52,49.4,46.3,32.3,40.5,15.1z" class="st403"/><path d="M11.2,7.3c-0.6-1.9-1.4-3-3.5-2.5C4.9,4.3,5.1,5.5,5.8,7.5c4.4,12.9,8.7,25.9,13.1,38.8 c2.3,6.9,4.6,13.8,6.9,20.7c0.7,2,2.8,3,5,2c1.9-0.8,0.2-2.2-0.1-3.1C24.3,46.4,17.7,26.9,11.2,7.3z" class="st403"/></g></svg>