<svg xmlns="http://www.w3.org/2000/svg" xmlns:xlink="http://www.w3.org/1999/xlink" id="Layer_1" x="0" y="0" enable-background="new 0 0 813 141.1" version="1.1" viewBox="-12.06 13.62 835.12 118.56" xml:space="preserve"><style type="text/css">.st548{fill:#151f34}.st549{filter:url(#Adobe_OpacityMaskFilter)}.st550{fill:#fff}.st551{mask:url(#b_1_);fill:#151f34}.st552{fill:#348540}.st553{fill:#7dbc42}</style><g><path d="M190.2,108.8c-5.6,3.4-15.1,5.2-23.7,5.2c-23.6,0-33.2-13.7-33.2-35.7c0-20.2,11.7-35.2,35.2-35.2 c7.9,0,16.3,2,21.5,5.4V67l-10.4-0.9l-1.5-9.3c-0.2-0.9-0.6-1.4-1.5-1.7c-2.1-0.7-5.3-1.1-8.4-1.1c-12,0-19.7,8.1-19.7,24.3 c0,16.8,7.3,24.9,19,24.9c3.1,0,7-0.5,9.5-1.2c1.1-0.3,1.4-0.6,1.7-2l1.4-8.8h10.1L190.2,108.8 M230.5,88c0-11.2-3.4-15.2-9.6-15.2 c-6.3,0-10.4,3.9-10.4,15.3c0,11.5,3.7,16,10,16C226.7,104.1,230.5,99.8,230.5,88z M195.5,88.5c0-15.7,8.2-26,25.6-26 c17.5,0,24.3,10.4,24.3,24.9c0,16.1-8.1,26.5-25.6,26.5C202.5,114,195.5,103.4,195.5,88.5z M293.6,109.4c-4.4,2.7-11.1,4.6-18,4.6 c-17.1,0-24.8-10.7-24.8-25.1c0-17.7,10.8-26.3,26-26.3c7.4,0,13.9,2.1,16.9,4v14.9L283.5,81l-1.1-6.3c-0.1-0.7-0.3-1.2-1.1-1.5 c-1.1-0.4-2.9-0.7-4.8-0.7c-5.7,0-10.5,3.9-10.5,15c0,12.3,5.5,15.8,12.2,15.8c4.7,0,9-1.5,11.8-2.7L293.6,109.4 M334.9,112.9 l-12-24.2l-5.1,5.6v8.5c0,1.5,0.1,1.7,1.5,1.9l5.7,0.7v7.5h-27.8v-7.5l4.7-0.7c1.3-0.2,1.5-0.5,1.5-1.9v-50c0-1-0.3-1.7-1.2-2 L297,49l1-7.7h19.7v40.5l17.3-18.3h13.1V71l-4.9,0.9c-1.2,0.2-1.5,0.5-2.4,1.4l-6.7,7.1l12.1,22.6c0.7,1.3,1.3,1.5,2.8,1.7l4.2,0.7 v7.4L334.9,112.9 M357.6,112.9v-7.7l4.3-0.6c1.3-0.2,1.5-0.5,1.5-1.9V75c0-1-0.3-1.7-1.2-2l-5.1-1.8l1-7.7h16.7l1.1,7.6h0.6 c3.1-4.8,7.3-8.5,13.4-8.5c2.2,0,6.5,0.4,8.2,0.9v17.2l-11.4-0.4l-0.9-5c-0.2-0.9-0.5-1-1.2-1c-2.5,0-5.4,2.1-6.8,3.3v25.1 c0,1.5,0.1,1.8,1.5,1.9l9.4,0.8v7.6L357.6,112.9 M437.3,88c0-11.2-3.4-15.2-9.6-15.2c-6.3,0-10.4,3.9-10.4,15.3 c0,11.5,3.7,16,10,16C433.5,104.1,437.3,99.8,437.3,88L437.3,88z M402.3,88.5c0-15.7,8.2-26,25.6-26c17.5,0,24.3,10.4,24.3,24.9 c0,16.1-8.1,26.5-25.6,26.5C409.3,114,402.3,103.4,402.3,88.5L402.3,88.5z M484.8,92.5l-6.4,0.5c-5.6,0.4-7.6,1.8-7.6,5.6 c0,3.8,2.3,5.2,5.4,5.2c3.2,0,6.4-1.8,8.6-3.4V92.5z M487.4,112.9l-0.9-5.1l-0.5-0.1c-3.6,3.5-8.3,6.3-15.9,6.3 c-11.9,0-13.8-8.1-13.8-14c0-9.5,5.9-13.8,17.7-14.6l10.9-0.8v-5.2c0-4.5-0.5-7.5-6.3-7.5c-4.5,0-6.9,0.7-6.9,6.3l-13.4-1.1 c0-12.8,11.6-14.6,20.4-14.6c14.4,0,20.2,3.9,20.2,17.1v23c0,1.5,0.1,1.7,1.5,1.9l4.6,0.8v7.5L487.4,112.9L487.4,112.9z M549.7,109.4c-4.4,2.7-11.1,4.6-18,4.6c-17.1,0-24.8-10.7-24.8-25.1c0-17.7,10.8-26.3,26-26.3c7.4,0,13.9,2.1,16.9,4v14.9 L539.6,81l-1.1-6.3c-0.1-0.7-0.3-1.2-1.1-1.5c-1.1-0.4-2.9-0.7-4.8-0.7c-5.7,0-10.5,3.9-10.5,15c0,12.3,5.5,15.8,12.2,15.8 c4.7,0,9-1.5,11.8-2.7L549.7,109.4" class="st548"/><defs><filter id="Adobe_OpacityMaskFilter" width="56.2" height="71.5" x="555.7" y="41.4" filterUnits="userSpaceOnUse"><feColorMatrix type="matrix" values="1 0 0 0 0 0 1 0 0 0 0 0 1 0 0 0 0 0 1 0"/></filter></defs><mask id="b_1_" width="56.2" height="71.5" x="555.7" y="41.4" maskUnits="userSpaceOnUse"><g class="st549"><path id="a_1_" d="M306.3,12.4H0.8v120.9h611.1V12.4H306.3z" class="st550"/></g></mask><path d="M591.3,112.9V82c0-2.8-0.3-8.1-5-8.1c-3.5,0-7.5,1.8-9.9,3.5v25.4c0,1.5,0.1,1.7,1.5,1.9l4.6,0.7v7.5h-26.1 v-7.5l4.3-0.7c1.3-0.2,1.5-0.5,1.5-1.9v-50c0-1-0.3-1.7-1.2-2l-5.2-1.8l1-7.7h19.5v26.8l0.5,0.1c4.3-3.5,9.2-5.7,15.2-5.7 c10,0,13.7,5.5,13.7,15.3v24.9c0,1.5,0.1,1.7,1.5,1.9l4.7,0.7v7.5H591.3" class="st551"/><path d="M638.8,63.6h10.9v39.2h20.1v10h-31V63.6 M698.4,78l-6,15.3h12L698.4,78L698.4,78z M694.2,63.6h9l21.4,49.3 h-12.2l-4.2-10.4H689l-4.1,10.4h-12L694.2,63.6L694.2,63.6z M739.9,103.7h9.7c0.8,0,1.7-0.1,2.5-0.3c0.8-0.2,1.6-0.5,2.3-1 c0.7-0.5,1.3-1.1,1.7-1.8c0.5-0.8,0.7-1.8,0.7-2.7c0-1.2-0.3-2.1-0.9-2.8c-0.6-0.7-1.3-1.3-2.2-1.6c-0.9-0.4-1.9-0.6-2.9-0.8 c-0.9-0.1-1.9-0.2-2.9-0.2h-8.2L739.9,103.7L739.9,103.7z M739.9,83.3h7.9c0.8,0,1.7-0.1,2.5-0.3c0.8-0.2,1.5-0.5,2.2-0.9 c0.6-0.4,1.2-1,1.6-1.7c0.4-0.7,0.6-1.5,0.6-2.5c0-1-0.2-1.9-0.7-2.5c-0.4-0.7-1-1.2-1.7-1.6c-0.7-0.4-1.5-0.7-2.4-0.8 c-0.8-0.2-1.7-0.2-2.6-0.2h-7.4L739.9,83.3L739.9,83.3z M729.1,63.6h18.4c2.1,0,4.3,0.1,6.4,0.5c2,0.3,4,0.9,5.8,1.8 c1.7,0.9,3.1,2.2,4.2,3.8c1.1,1.6,1.6,3.8,1.6,6.5c0,2.8-0.8,5.1-2.3,6.9c-1.6,1.8-3.6,3.1-6.2,3.9v0.1c1.6,0.2,3.1,0.7,4.4,1.4 c1.3,0.7,2.5,1.5,3.4,2.6c0.9,1,1.7,2.3,2.2,3.7c0.5,1.4,0.8,2.9,0.8,4.5c0,2.6-0.6,4.8-1.7,6.5c-1.1,1.7-2.6,3.1-4.3,4.2 c-1.8,1.1-3.7,1.8-5.9,2.3c-2.2,0.5-4.4,0.7-6.6,0.7h-20.2L729.1,63.6L729.1,63.6z M798.9,75.7c-0.9-1.1-2.2-2-3.6-2.5 c-1.4-0.5-2.8-0.8-4.3-0.8c-0.8,0-1.6,0.1-2.4,0.3c-0.8,0.2-1.6,0.5-2.4,0.9c-0.7,0.4-1.3,0.9-1.8,1.6c-0.5,0.7-0.7,1.4-0.7,2.4 c0,1.5,0.6,2.6,1.7,3.4c1.1,0.8,2.5,1.5,4.2,2c1.7,0.6,3.5,1.1,5.5,1.7c1.9,0.6,3.8,1.3,5.5,2.4c1.7,1,3.1,2.4,4.2,4.1 c1.1,1.7,1.7,4,1.7,6.9c0,2.7-0.5,5.1-1.5,7.2c-1,2-2.4,3.7-4.1,5.1c-1.8,1.4-3.9,2.4-6.1,3c-2.4,0.7-4.8,1-7.3,1 c-3,0-6-0.5-8.9-1.5c-2.7-1-5.3-2.5-7.7-4.7l7.7-8.5c1.1,1.5,2.5,2.6,4.2,3.4c1.7,0.8,3.4,1.2,5.3,1.2c0.9,0,1.8-0.1,2.7-0.3 c0.9-0.2,1.7-0.5,2.4-0.9c0.7-0.4,1.3-0.9,1.7-1.6c0.4-0.7,0.7-1.4,0.7-2.3c0-1.5-0.6-2.7-1.7-3.5c-1.1-0.9-2.6-1.6-4.3-2.2 c-1.8-0.6-3.7-1.2-5.6-1.8c-1.9-0.6-3.8-1.4-5.6-2.4c-1.7-1-3.2-2.4-4.3-4c-1.1-1.7-1.7-3.9-1.7-6.6c0-2.6,0.5-5,1.6-7 c1-2,2.4-3.7,4.2-5c1.8-1.4,3.8-2.4,6-3c2.3-0.7,4.6-1,7-1c2.8,0,5.5,0.4,8.1,1.2c2.6,0.8,4.9,2.1,7,4L798.9,75.7" class="st552"/><path d="M73.4,48.6c-4.1,1-8.3,1.4-12.5,1.4c-4.3,0-8.5-0.5-12.5-1.4c3.3-5.3,7.6-10,12.5-13.9 C65.8,38.6,70.1,43.3,73.4,48.6L73.4,48.6z M111.1,18c-5.2-1.4-10.5-2.1-15.8-2c-12.2,0-24.2,3.6-34.4,10.4 C50.7,19.6,38.8,15.9,26.5,16c-5.5,0-10.8,0.7-15.8,2c-2.1,0.5-4.2,1.2-6.2,2c-0.1,0.1-0.2,0.2-0.1,0.3c0,0,0,0,0,0 c0.9,1.9,1.9,3.8,2.9,5.6C7.4,26,7.5,26,7.6,26c6.1-2.2,12.5-3.3,18.9-3.3c10.5,0,20.3,2.9,28.7,8c-5.3,4.5-9.9,9.9-13.4,15.9 c-1.9,3.1-3.4,6.4-4.7,9.8c-2.6,6.9-3.9,14.3-3.9,21.6c0,17.6,7.4,33.5,19.2,44.8c0.9,0.9,1.9,1.8,2.9,2.6c0.8,0.7,1.6,1.3,2.4,1.9 c1,0.8,2.1,1.6,3.2,2.3c0.1,0.1,0.2,0.1,0.3,0c1.1-0.7,2.1-1.5,3.2-2.3c0.8-0.6,1.6-1.2,2.4-1.9c1-0.8,2-1.7,2.9-2.6 c11.8-11.3,19.1-27.2,19.1-44.8c0-8.8-1.9-17.5-5.5-25.5c-0.4-0.8-0.8-1.7-1.2-2.5c-0.6-1.2-1.3-2.4-2-3.5 c-3.6-6-8.1-11.4-13.4-15.9c8.7-5.2,18.6-8,28.7-8c6.4,0,12.9,1.1,18.9,3.3c0.1,0,0.2,0,0.3-0.1c1.1-1.8,2-3.7,2.9-5.5 c0.1-0.1,0-0.3-0.1-0.3c0,0,0,0,0,0C115.3,19.2,113.2,18.5,111.1,18L111.1,18z" class="st548"/><path d="M81.9,78.1c0,14.7-5.7,28.1-15.1,38c-1.7-5.4-2.5-11-2.5-16.6c0-14.7,5.7-28.1,15.1-38 C81,66.7,81.9,72.3,81.9,78.1" class="st552"/><path d="M57.6,99.4c0,5.8-0.9,11.4-2.5,16.6c-9.7-10.3-15.1-23.9-15.1-38c0-5.8,0.9-11.4,2.6-16.6 C52.2,71.7,57.6,85.3,57.6,99.4" class="st553"/></g></svg>