<svg xmlns="http://www.w3.org/2000/svg" xmlns:xlink="http://www.w3.org/1999/xlink" id="Layer_1" x="0" y="0" enable-background="new 0 0 133 222.5" version="1.1" viewBox="-0.56 -0.82 133.12 224.64" xml:space="preserve"><style type="text/css">.st0{opacity:.66;enable-background:new}</style><g><g><path d="M108.5,189v30.4h21.2V189H108.5z M126.2,215.9H124h-12v-3.5v-9.9h2.5h7.4v-4.9h4.2V215.9z"/><rect width="5.7" height="6.4" x="116.3" y="206"/></g><g><polygon points="47.7 198.2 44.9 198.2 44.9 203.1 42.8 203.1 42.8 206 44.9 206 44.9 215.9 46.7 215.9 50.6 215.9 50.6 213 47.7 213 47.7 206 50.6 206 50.6 203.1 47.7 203.1" class="st0"/><path d="M54.8,206h7.1v2.1H52v2.1v5.7h1.4h9.9h1.4v-11v-1.8h-9.9V206z M61.9,213h-7.1v-2.1h7.1V213z" class="st0"/><rect width="2.8" height="12.7" x="66.1" y="203.1" class="st0"/><polygon points="32.9 203.1 30.8 203.1 30.8 215.9 33.6 215.9 33.6 206 38.5 206 38.5 215.9 41.4 215.9 41.4 203.1 39.2 203.1" class="st0"/><polygon points="2.5 203.1 2.5 215.9 4.6 215.9 15.2 215.9 15.2 213 5.3 213 5.3 206 15.2 206 15.2 203.1 4.6 203.1" class="st0"/><path d="M16.6,205.6v8.1v2.1h12.7v-2.1v-8.1v-2.5H16.6V205.6z M19.5,206h7.1v7.1h-7.1V206z" class="st0"/><rect width="2.8" height="2.8" x="66.1" y="198.2" class="st0"/><polygon points="98.6 203.1 95.8 203.1 95.8 215.9 98.6 215.9 98.6 206 106.4 206 106.4 203.1" class="st0"/><polygon points="72.8 203.1 70.3 203.1 70.3 215.9 73.2 215.9 73.2 206 78.1 206 78.1 215.9 80.9 215.9 80.9 203.1 78.5 203.1" class="st0"/><path d="M82.4,203.1v12.7h2.1H93V213h-7.8v-2.1H93h1.4v-6.4v-1.4H83.8H82.4z M85.2,206h6.4v2.1h-6.4V206z" class="st0"/></g><g><path d="M2.7,3.7v181.8h126.8V3.7H2.7z M108.4,164.4H95.7H23.8v-21.1V84h14.8H83V54.4h25.4V164.4z"/><rect width="33.8" height="38.1" x="49.2" y="105.2"/></g></g></svg>