<svg xmlns="http://www.w3.org/2000/svg" xmlns:xlink="http://www.w3.org/1999/xlink" id="Layer_1" x="0" y="0" enable-background="new 0 0 537.1 604.3" version="1.1" viewBox="28.16 14.5 506.48 582.4" xml:space="preserve"><style type="text/css">.st70{fill:#282425}.st70,.st71{clip-path:url(#SVGID_2_)}.st72{fill:#282425}.st72,.st73,.st74{clip-path:url(#SVGID_4_)}.st74{fill:#0177c1}</style><g><g><defs><rect id="SVGID_1_" width="984" height="760.3" x="-210.9" y="-76"/></defs><clipPath id="SVGID_2_"><use overflow="visible" xlink:href="#SVGID_1_"/></clipPath><polygon points="99.7 530.2 57.2 473.1 38.8 473.1 38.8 563.8 58.7 563.8 58.7 507.2 101.9 563.8 119.6 563.8 119.6 473.1 99.7 473.1" class="st70"/><g class="st71"><defs><rect id="SVGID_3_" width="984" height="760.3" x="-210.9" y="-76"/></defs><clipPath id="SVGID_4_"><use overflow="visible" xlink:href="#SVGID_3_"/></clipPath><path d="M161.8,493.6c-18.6,0-33.9,16.2-33.9,36.2s15.8,36,34.4,36c11.3,0,22.5-4.2,29.6-12.5l-10.9-10.7 c0,0-7.3,7.3-16.9,7.3c-14.6,0-17.1-13.4-17.1-13.4h48.2c0,0,0.1-6.7-0.2-11.5C193.6,507.2,180.3,493.6,161.8,493.6 M146.8,524.1 c0.7-8.3,7.1-14.8,14.9-14.8c7.8,0,14.2,6.5,14.9,14.8H146.8z" class="st72"/><path d="M226.4,478.1h-18.6v17.4h-8.7v16.2h8.7V544c0,0.4,0,0.8,0,1.2v1.2h0c0.2,6.9,1.9,19.2,19.9,19.2 c9.2,0,14.8-4.9,14.8-4.9v-15.6c0,0-4.4,2.9-8.6,2.9c-6,0-7.3-4.9-7.5-6.5v-29.9h16.2v-16.2h-16.2V478.1z" class="st72"/><path d="M296,473.1h-1.2h-1.2h-7.9L247,563.9l20.7-0.1l8.3-21.1h36.4l8.3,21.1l20.7,0.1l-38.7-90.8H296z M282.3,526.5l11.2-28.6h1.2l11.2,28.6H282.3z" class="st72"/><path d="M386.8,493.7c-8.9,0-16.9,4.3-22.5,11.3v-9.5h-18.6v89.5h18.6v-30.6c5.6,6.9,13.6,11.3,22.5,11.3 c17.1,0,31-16.1,31-35.9C417.8,509.8,403.9,493.7,386.8,493.7 M381.1,548.7c-7.6,0-14-5.8-16.1-13.7c-0.5-1.8-0.4-3.6-0.4-5.6 c0-1.9-0.1-3.7,0.3-5.4c2-8,8.5-13.9,16.2-13.9c9.3,0,16.8,8.6,16.8,19.3C397.9,540.1,390.3,548.7,381.1,548.7" class="st72"/><path d="M467.3,493.7c-8.9,0-17.3,4.3-22.2,11.3v-9.5h-18.6v89.5h18.6v-30.6c5,6.9,13.4,11.3,22.2,11.3 c17.1,0,31-16.1,31-35.9C498.3,509.8,484.4,493.7,467.3,493.7 M461.3,548.7c-7.6,0-14-5.8-16.1-13.7c-0.5-1.8-0.4-3.6-0.4-5.6 c0-1.9-0.1-3.7,0.3-5.4c2-8,8.5-13.9,16.2-13.9c9.3,0,16.8,8.6,16.8,19.3C478.1,540.1,470.6,548.7,461.3,548.7" class="st72"/><path d="M495.6,497.8v-2.3h11.6v2.3h-4.5v11.4H500v-11.4H495.6z M513.4,495.5l3.5,9.8l3.5-9.8h3.9v13.6h-2.5v-11 l-3.8,11h-2.2l-3.8-11v11h-2.5v-13.6H513.4z" class="st73"/><polygon points="40.1 25.9 40.1 406 217.7 406 217.7 177.4 318.4 177.4 318.4 406 496 406 496 25.9" class="st74"/></g></g></g></svg>