<svg xmlns="http://www.w3.org/2000/svg" xmlns:svg="http://www.w3.org/2000/svg" id="svg5230" version="1.1" viewBox="-20 -9.183 1040 503.36" xml:space="preserve"><metadata id="metadata5236"/><defs id="defs5234"><clipPath id="clipPath8570" clipPathUnits="userSpaceOnUse"><path id="path8572" d="m 413.874,157.641 -17.903,0 0,-8.817 17.903,0 0,8.817 z"/></clipPath><clipPath id="clipPath8582" clipPathUnits="userSpaceOnUse"><path id="path8584" d="m 437.33,157.801 -18.9,0 0,-8.81 18.9,0 0,8.81 z"/></clipPath><clipPath id="clipPath8594" clipPathUnits="userSpaceOnUse"><path id="path8596" d="m 457.322,155.224 -18.753,0 0,-3.75 18.753,0 0,3.75 z"/></clipPath><clipPath id="clipPath8606" clipPathUnits="userSpaceOnUse"><path id="path8608" d="m 565.698,156.304 -18.354,0 0,-5.995 18.354,0 0,5.995 z"/></clipPath><clipPath id="clipPath8618" clipPathUnits="userSpaceOnUse"><path id="path8620" d="m 589.354,156.446 -18.244,0 0,-7.758 18.244,0 0,7.758 z"/></clipPath><clipPath id="clipPath8630" clipPathUnits="userSpaceOnUse"><path id="path8632" d="m 589.355,165.339 -18.286,0 0,-8.394 18.286,0 0,8.394 z"/></clipPath><clipPath id="clipPath8642" clipPathUnits="userSpaceOnUse"><path id="path8644" d="m 609.127,158.156 -17.534,0 0,-9.908 17.534,0 0,9.908 z"/></clipPath><clipPath id="clipPath8654" clipPathUnits="userSpaceOnUse"><path id="path8656" d="m 633.199,165.403 -18.789,0 0,-7.485 18.789,0 0,7.485 z"/></clipPath><clipPath id="clipPath8734" clipPathUnits="userSpaceOnUse"><path id="path8736" d="m 633.401,154.092 -18.858,0 0,-4.2719 18.858,0 0,4.2719 z"/></clipPath><clipPath id="clipPath9274" clipPathUnits="userSpaceOnUse"><path id="path9276" d="m 1045.67,433.766 6.96,-13.169 -16.45,-8.693 -6.97,13.172 16.46,8.69"/></clipPath><clipPath id="clipPath9280" clipPathUnits="userSpaceOnUse"><path id="path9282" d="m 1045.67,433.766 6.96,-13.169 -16.45,-8.693 -6.97,13.172 16.46,8.69"/></clipPath><clipPath id="clipPath9286" clipPathUnits="userSpaceOnUse"><path id="path9288" d="m 1045.67,433.768 6.96,-13.171 -16.45,-8.693 -6.97,13.172 16.46,8.692"/></clipPath><clipPath id="clipPath9292" clipPathUnits="userSpaceOnUse"><path id="path9294" d="m 1045.67,433.768 6.96,-13.171 -16.46,-8.693 -6.96,13.172 16.46,8.692"/></clipPath><clipPath id="clipPath9344" clipPathUnits="userSpaceOnUse"><path id="path9346" d="m 1045.91,432.937 6.18,-11.9 -14.8,-7.686 -6.18,11.898 14.8,7.688"/></clipPath><clipPath id="clipPath9350" clipPathUnits="userSpaceOnUse"><path id="path9352" d="m 1045.91,432.936 6.18,-11.899 -14.8,-7.687 -6.18,11.899 14.8,7.687"/></clipPath><clipPath id="clipPath9356" clipPathUnits="userSpaceOnUse"><path id="path9358" d="m 1045.91,432.936 6.18,-11.899 -14.8,-7.687 -6.18,11.903 14.8,7.683"/></clipPath><clipPath id="clipPath9362" clipPathUnits="userSpaceOnUse"><path id="path9364" d="m 1045.91,432.936 6.18,-11.899 -14.8,-7.687 -6.18,11.903 14.8,7.683"/></clipPath><clipPath id="clipPath9410" clipPathUnits="userSpaceOnUse"><path id="path9412" d="m 1048.9,431.869 3.3,-4.058 -4.2,-3.413 -3.31,4.062 4.21,3.409"/></clipPath><clipPath id="clipPath9416" clipPathUnits="userSpaceOnUse"><path id="path9418" d="m 1048.9,431.869 3.3,-4.058 -4.2,-3.413 -3.31,4.062 4.21,3.409"/></clipPath><clipPath id="clipPath9422" clipPathUnits="userSpaceOnUse"><path id="path9424" d="m 1048.9,431.869 3.3,-4.058 -4.2,-3.413 -3.31,4.062 4.21,3.409"/></clipPath><clipPath id="clipPath9428" clipPathUnits="userSpaceOnUse"><path id="path9430" d="m 1048.9,431.869 3.3,-4.058 -4.2,-3.413 -3.31,4.062 4.21,3.409"/></clipPath><clipPath id="clipPath9464" clipPathUnits="userSpaceOnUse"><path id="path9466" d="m 1033.38,423.46 1.15,-4.202 -5.59,-1.554 -1.16,4.205 5.6,1.551"/></clipPath><clipPath id="clipPath9470" clipPathUnits="userSpaceOnUse"><path id="path9472" d="m 1033.38,423.46 1.15,-4.202 -5.59,-1.554 -1.16,4.205 5.6,1.551"/></clipPath><clipPath id="clipPath9476" clipPathUnits="userSpaceOnUse"><path id="path9478" d="m 1033.38,423.46 1.16,-4.202 -5.6,-1.554 -1.16,4.205 5.6,1.551"/></clipPath><clipPath id="clipPath9482" clipPathUnits="userSpaceOnUse"><path id="path9484" d="m 1033.38,423.46 1.16,-4.202 -5.6,-1.554 -1.16,4.205 5.6,1.551"/></clipPath><clipPath id="clipPath9510" clipPathUnits="userSpaceOnUse"><path id="path9512" d="m 1049.67,423.749 1.57,-4.004 -5.25,-2.058 -1.56,4 5.24,2.062"/></clipPath><clipPath id="clipPath9516" clipPathUnits="userSpaceOnUse"><path id="path9518" d="m 1049.67,423.749 1.57,-4.004 -5.25,-2.057 -1.56,4 5.24,2.061"/></clipPath><clipPath id="clipPath9522" clipPathUnits="userSpaceOnUse"><path id="path9524" d="m 1049.67,423.749 1.57,-4.004 -5.25,-2.057 -1.56,4 5.24,2.061"/></clipPath><clipPath id="clipPath9528" clipPathUnits="userSpaceOnUse"><path id="path9530" d="m 1049.67,423.749 1.57,-4.004 -5.25,-2.057 -1.56,4 5.24,2.061"/></clipPath><clipPath id="clipPath9556" clipPathUnits="userSpaceOnUse"><path id="path9558" d="m 1049.16,423.453 1.62,-3.516 -4.64,-2.135 -1.62,3.514 4.64,2.137"/></clipPath><clipPath id="clipPath9562" clipPathUnits="userSpaceOnUse"><path id="path9564" d="m 1049.16,423.453 1.62,-3.515 -4.64,-2.136 -1.62,3.514 4.64,2.137"/></clipPath><clipPath id="clipPath9568" clipPathUnits="userSpaceOnUse"><path id="path9570" d="m 1049.16,423.453 1.62,-3.515 -4.64,-2.136 -1.62,3.515 4.64,2.136"/></clipPath><clipPath id="clipPath9574" clipPathUnits="userSpaceOnUse"><path id="path9576" d="m 1049.16,423.456 1.63,-3.518 -4.65,-2.136 -1.62,3.515 4.64,2.139"/></clipPath><clipPath id="clipPath9654" clipPathUnits="userSpaceOnUse"><path id="path9656" d="m 1032.6,423.911 2.22,-4.124 -5.04,-2.708 -2.22,4.118 5.04,2.714"/></clipPath><clipPath id="clipPath9660" clipPathUnits="userSpaceOnUse"><path id="path9662" d="m 1032.6,423.911 2.22,-4.124 -5.04,-2.708 -2.22,4.118 5.04,2.714"/></clipPath><clipPath id="clipPath9666" clipPathUnits="userSpaceOnUse"><path id="path9668" d="m 1032.6,423.911 2.22,-4.124 -5.04,-2.708 -2.22,4.118 5.04,2.714"/></clipPath><clipPath id="clipPath9672" clipPathUnits="userSpaceOnUse"><path id="path9674" d="m 1032.6,423.911 2.22,-4.124 -5.04,-2.708 -2.22,4.118 5.04,2.714"/></clipPath><clipPath id="clipPath9712" clipPathUnits="userSpaceOnUse"><path id="path9714" d="m 1030.17,420.458 0.01,3.007 3.11,-0.009 -0.01,-3.01 -3.11,0.012"/></clipPath><clipPath id="clipPath9718" clipPathUnits="userSpaceOnUse"><path id="path9720" d="m 1030.17,420.458 0.01,3.007 3.11,-0.009 -0.01,-3.01 -3.11,0.012"/></clipPath><clipPath id="clipPath9724" clipPathUnits="userSpaceOnUse"><path id="path9726" d="m 1030.17,420.458 0.01,3.007 3.11,-0.009 -0.01,-3.01 -3.11,0.012"/></clipPath><clipPath id="clipPath9730" clipPathUnits="userSpaceOnUse"><path id="path9732" d="m 1030.17,420.458 0.01,3.007 3.11,-0.009 -0.01,-3.01 -3.11,0.012"/></clipPath><clipPath id="clipPath9766" clipPathUnits="userSpaceOnUse"><path id="path9768" d="m 1047.84,420.807 0.01,2.745 2.75,-0.009 -0.01,-2.744 -2.75,0.008"/></clipPath><clipPath id="clipPath9772" clipPathUnits="userSpaceOnUse"><path id="path9774" d="m 1047.84,420.807 0.01,2.745 2.75,-0.009 -0.01,-2.744 -2.75,0.008"/></clipPath><clipPath id="clipPath9778" clipPathUnits="userSpaceOnUse"><path id="path9780" d="m 1047.84,420.807 0.01,2.745 2.75,-0.009 -0.01,-2.744 -2.75,0.008"/></clipPath><clipPath id="clipPath9784" clipPathUnits="userSpaceOnUse"><path id="path9786" d="m 1047.84,420.807 0.01,2.745 2.75,-0.009 -0.01,-2.744 -2.75,0.008"/></clipPath><clipPath id="clipPath9860" clipPathUnits="userSpaceOnUse"><path id="path9862" d="m 1035.63,421.095 1,-1.927 -3.02,-1.571 -1,1.927 3.02,1.571"/></clipPath><clipPath id="clipPath9866" clipPathUnits="userSpaceOnUse"><path id="path9868" d="m 1035.63,421.095 1,-1.927 -3.02,-1.571 -1,1.927 3.02,1.571"/></clipPath><clipPath id="clipPath9872" clipPathUnits="userSpaceOnUse"><path id="path9874" d="m 1035.63,421.095 1,-1.927 -3.02,-1.571 -1,1.927 3.02,1.571"/></clipPath><clipPath id="clipPath9878" clipPathUnits="userSpaceOnUse"><path id="path9880" d="m 1035.63,421.095 1,-1.927 -3.02,-1.571 -1,1.927 3.02,1.571"/></clipPath><clipPath id="clipPath9902" clipPathUnits="userSpaceOnUse"><path id="path9904" d="m 1033.84,421.062 0.68,-1.309 -1.54,-0.799 -0.68,1.309 1.54,0.799"/></clipPath><clipPath id="clipPath9908" clipPathUnits="userSpaceOnUse"><path id="path9910" d="m 1033.84,421.062 0.68,-1.309 -1.54,-0.799 -0.68,1.309 1.54,0.799"/></clipPath><clipPath id="clipPath9914" clipPathUnits="userSpaceOnUse"><path id="path9916" d="m 1033.84,421.062 0.68,-1.309 -1.54,-0.799 -0.68,1.309 1.54,0.799"/></clipPath><clipPath id="clipPath9920" clipPathUnits="userSpaceOnUse"><path id="path9922" d="m 1033.84,421.065 0.68,-1.312 -1.54,-0.799 -0.68,1.309 1.54,0.802"/></clipPath><clipPath id="clipPath10512" clipPathUnits="userSpaceOnUse"><path id="path10514" d="m 241.471,463.996 -12.488,0 0,-10.286 12.488,0 0,10.286 z"/></clipPath><clipPath id="clipPath10612" clipPathUnits="userSpaceOnUse"><path id="path10614" d="m 241.678,480.87 -15.734,0 0,-10.831 15.734,0 0,10.831 z"/></clipPath><clipPath id="clipPath10624" clipPathUnits="userSpaceOnUse"><path id="path10626" d="m 232.069,445.27 12.238,0 0,-8.428 -12.238,0 0,8.428 z"/></clipPath><clipPath id="clipPath10636" clipPathUnits="userSpaceOnUse"><path id="path10638" d="m 196.309,362.597 -6.849,0 0,6.848 6.849,0 0,-6.848"/></clipPath><clipPath id="clipPath10648" clipPathUnits="userSpaceOnUse"><path id="path10650" d="m 196.309,300.898 -6.849,0 0,6.848 6.849,0 0,-6.848"/></clipPath><clipPath id="clipPath10660" clipPathUnits="userSpaceOnUse"><path id="path10662" d="m 200.953,361.086 -9.342,0 0,-8.196 9.342,0 0,8.196 z"/></clipPath><clipPath id="clipPath10672" clipPathUnits="userSpaceOnUse"><path id="path10674" d="m 264.499,225.803 -18.337,0 0,-5.371 18.337,0 0,5.371 z"/></clipPath><clipPath id="clipPath10684" clipPathUnits="userSpaceOnUse"><path id="path10686" d="m 227.129,534.689 -32.953,0 0,-9.996 32.953,0 0,9.996 z"/></clipPath><clipPath id="clipPath10696" clipPathUnits="userSpaceOnUse"><path id="path10698" d="m 192.838,379.879 9.04,0 0,-8.925 -9.04,0 0,8.925 z"/></clipPath><clipPath id="clipPath10708" clipPathUnits="userSpaceOnUse"><path id="path10710" d="m 192.838,379.993 9.04,0 0,-0.11401 -9.04,0 0,0.11401 z"/></clipPath><clipPath id="clipPath10720" clipPathUnits="userSpaceOnUse"><path id="path10722" d="m 219.979,327.014 -9.004,0 0,-9.219 9.004,0 0,9.219 z"/></clipPath><clipPath id="clipPath10732" clipPathUnits="userSpaceOnUse"><path id="path10734" d="m 191.347,317.508 -9.639,0 0,-7.541 9.639,0 0,7.541 z"/></clipPath><linearGradient id="linearGradient9304" x1="0" x2="1" y1="0" y2="0" gradientTransform="matrix(2.2585,-4.2732,4.2792,2.2602,1039.43,425.649)" gradientUnits="userSpaceOnUse" spreadMethod="pad"><stop id="stop9306" offset="0" stop-color="#ed1b2d" stop-opacity="1"/><stop id="stop9308" offset="1" stop-color="#ed1b2d" stop-opacity="1"/></linearGradient><linearGradient id="linearGradient9374" x1="0" x2="1" y1="0" y2="0" gradientTransform="matrix(2.7049,-5.2039,5.208,2.7036,1039.86,426.544)" gradientUnits="userSpaceOnUse" spreadMethod="pad"><stop id="stop9376" offset="0" stop-color="#ed1b2d" stop-opacity="1"/><stop id="stop9378" offset="1" stop-color="#ed1b2d" stop-opacity="1"/></linearGradient><linearGradient id="linearGradient9440" x1="0" x2="1" y1="0" y2="0" gradientTransform="matrix(1.4165,-1.7398,1.7421,1.413,1048.08,428.588)" gradientUnits="userSpaceOnUse" spreadMethod="pad"><stop id="stop9442" offset="0" stop-color="#4d74b9" stop-opacity="1"/><stop id="stop9444" offset="1" stop-color="#314b7d" stop-opacity="1"/></linearGradient><linearGradient id="linearGradient9494" x1="0" x2="1" y1="0" y2="0" gradientTransform="matrix(0.85515,-3.0989,3.0993,0.85883,1030.77,422.001)" gradientUnits="userSpaceOnUse" spreadMethod="pad"><stop id="stop9496" offset="0" stop-color="#ed1b2d" stop-opacity="1"/><stop id="stop9498" offset="1" stop-color="#ed1b2d" stop-opacity="1"/></linearGradient><linearGradient id="linearGradient9540" x1="0" x2="1" y1="0" y2="0" gradientTransform="matrix(0.67753,-1.7317,1.7326,0.68033,1047.6,421.345)" gradientUnits="userSpaceOnUse" spreadMethod="pad"><stop id="stop9542" offset="0" stop-color="#ed1b2d" stop-opacity="1"/><stop id="stop9544" offset="1" stop-color="#ed1b2d" stop-opacity="1"/></linearGradient><linearGradient id="linearGradient9586" x1="0" x2="1" y1="0" y2="0" gradientTransform="matrix(1.2309,-2.6682,2.6687,1.2281,1047,422.018)" gradientUnits="userSpaceOnUse" spreadMethod="pad"><stop id="stop9588" offset="0" stop-color="#ed1b2d" stop-opacity="1"/><stop id="stop9590" offset="1" stop-color="#ed1b2d" stop-opacity="1"/></linearGradient><linearGradient id="linearGradient9684" x1="0" x2="1" y1="0" y2="0" gradientTransform="matrix(1.6848,-3.1253,3.1318,1.6863,1030.26,422.185)" gradientUnits="userSpaceOnUse" spreadMethod="pad"><stop id="stop9686" offset="0" stop-color="#ed1b2d" stop-opacity="1"/><stop id="stop9688" offset="1" stop-color="#ed1b2d" stop-opacity="1"/></linearGradient><linearGradient id="linearGradient9742" x1="0" x2="1" y1="0" y2="0" gradientTransform="matrix(0.01032,3.1821,-3.1888,0.008815,1031.73,420.364)" gradientUnits="userSpaceOnUse" spreadMethod="pad"><stop id="stop9744" offset="0" stop-color="#636466" stop-opacity="1"/><stop id="stop9746" offset="1" stop-color="#231f20" stop-opacity="1"/></linearGradient><linearGradient id="linearGradient9796" x1="0" x2="1" y1="0" y2="0" gradientTransform="matrix(0.01032,2.7149,-2.714,0.008815,1049.23,420.71)" gradientUnits="userSpaceOnUse" spreadMethod="pad"><stop id="stop9798" offset="0" stop-color="#636466" stop-opacity="1"/><stop id="stop9800" offset="1" stop-color="#231f20" stop-opacity="1"/></linearGradient><linearGradient id="linearGradient9890" x1="0" x2="1" y1="0" y2="0" gradientTransform="matrix(2.7212,-5.2343,5.2347,2.7236,1032.85,422.883)" gradientUnits="userSpaceOnUse" spreadMethod="pad"><stop id="stop9892" offset="0" stop-color="#ed1b2d" stop-opacity="1"/><stop id="stop9894" offset="1" stop-color="#ed1b2d" stop-opacity="1"/></linearGradient><linearGradient id="linearGradient9932" x1="0" x2="1" y1="0" y2="0" gradientTransform="matrix(2.72,-5.2331,5.232,2.7187,1032.12,422.463)" gradientUnits="userSpaceOnUse" spreadMethod="pad"><stop id="stop9934" offset="0" stop-color="#ed1b2d" stop-opacity="1"/><stop id="stop9936" offset="1" stop-color="#ed1b2d" stop-opacity="1"/></linearGradient></defs><g id="g5238" transform="matrix(1.25,0,0,-1.25,-998.23397,851.00265)"><path id="path16907" fill="#4286d2" fill-opacity="1" stroke="none" d="m 1071.145,321.14318 0,-1.19753 c 0,-15.24229 -13.0818,-26.34565 -26.3456,-26.34565 l -219.14799,0 c -15.80267,0 -26.66423,12.83915 -26.66423,26.43121 0,10.11873 3.74333,13.87497 11.51679,26.20634 L 968.93526,595.0536 c 3.12768,4.92494 4.88287,8.88306 4.88287,13.19185 0,9.78884 -6.94464,18.26783 -18.8335,18.26783 l -116.16039,0 c -18.40782,0.0636 -27.18607,15.21166 -27.18607,26.72403 0,15.92058 12.93699,27.16481 27.18607,27.16481 l 204.77756,0 c 16.2387,0 28.095,-12.29818 28.095,-26.21361 0,-8.52119 -3.1371,-14.04886 -7.6712,-20.65387 L 901.33653,378.24478 c -2.58021,-3.71538 -4.56577,-6.50339 -4.56577,-12.55587 0,-8.06926 5.12671,-18.20007 18.69538,-18.20007 l 129.33326,0 c 16.3355,0 26.3456,-13.83356 26.3456,-26.34566 z"/><path id="path16909" fill="#4286d2" fill-opacity="1" stroke="none" d="m 1220.959,293.66089 c -18.5376,0 -29.5235,17.08698 -29.5235,28.8635 l 0,278.32899 c 0,13.68128 -11.9122,25.6599 -24.5963,25.6599 l -47.793,0 c -14.995,0 -27.5644,11.29698 -27.5644,26.72403 0,15.61154 12.6663,27.16481 27.5644,27.16481 l 203.836,0 c 15.7271,0 28.468,-11.57725 28.468,-26.78433 0,-13.919 -11.0101,-27.10451 -27.5264,-27.10451 l -47.9012,0 c -12.0253,0 -24.6106,-12.18537 -24.6106,-25.29579 l 0,-278.87678 c 0,-13.3946 -11.5293,-28.67982 -30.353,-28.67982 z"/><path id="path16911" fill="#4286d2" fill-opacity="1" stroke="none" d="m 1398.0707,293.6 c -14.1228,0 -27.5432,11.02905 -27.5432,27.54318 l 0,331.71576 c 0,15.91588 11.5302,27.54318 27.5432,27.54318 l 173.6418,0 c 14.8701,0 26.4747,-12.15555 26.4747,-27.16481 0,-13.22725 -9.9606,-26.72403 -26.4747,-26.72403 l -116.1604,0 c -13.1765,0 -24.4909,-11.8387 -24.4909,-25.14812 l 0,-63.46908 c 0,-12.06997 12.3871,-23.9506 24.4909,-23.9506 l 96.9999,0 c 12.8873,0 25.7551,-11.1641 25.7551,-26.78806 0,-12.45385 -9.93,-27.10078 -26.9526,-27.10078 l -94.6049,0 c -14.5734,0 -25.6884,-12.53578 -25.6884,-25.14812 l 0,-64.66661 c 0,-11.52786 11.6149,-22.75307 23.2934,-22.75307 l 117.3579,0 c 14.1243,0 26.4747,-10.94716 26.4747,-26.88691 0,-15.8816 -12.2574,-27.00193 -26.4747,-27.00193 z"/></g></svg>